<svg width="28" height="28" viewBox="0 0 28 28" fill="none" xmlns="http://www.w3.org/2000/svg">
<path d="M28 13.7518C28 13.8394 28 13.927 28 14.0146C28 14.1022 28 14.1898 28 14.2774C27.9415 16.8467 27.2101 19.2701 25.9227 21.3431C25.8642 21.4307 25.8349 21.489 25.7764 21.5766C25.7179 21.6934 25.6301 21.8102 25.5716 21.8978C25.4838 22.0438 25.3961 22.1606 25.279 22.3066C25.162 22.4526 25.045 22.5985 24.9279 22.7445C24.8987 22.8029 24.8402 22.8321 24.8109 22.8905C24.7524 22.9489 24.7231 23.0073 24.6646 23.0657C24.6061 23.1533 24.5183 23.2409 24.4598 23.2993C24.372 23.3869 24.3135 23.4745 24.2257 23.5328C24.138 23.6204 24.0795 23.6788 23.9917 23.7664C23.231 24.5547 22.3825 25.2555 21.4462 25.8394C21.3585 25.8978 21.2707 25.9562 21.1536 26.0146C20.1004 26.6569 18.9593 27.1241 17.7597 27.4745C17.6719 27.5036 17.5842 27.5328 17.4964 27.5328C17.3208 27.5912 17.1453 27.6204 16.9697 27.6496C16.8527 27.6788 16.7357 27.708 16.6479 27.708C15.8579 27.854 15.068 27.9416 14.2487 27.9708C17.9352 27.8832 21.1536 25.8978 22.9677 22.9489C23.9332 21.3431 24.5183 19.4745 24.5183 17.4891C24.5183 16.2628 24.3135 15.0949 23.9332 13.9854C23.1139 11.708 21.534 9.78102 19.4859 8.52555C17.9352 7.59125 16.1213 7.03651 14.1902 7.00731C14.1317 7.00731 14.0732 7.00731 14.0147 7.00731C13.9561 7.00731 13.8976 7.00731 13.8391 7.00731C10.1233 7.0949 7.10975 10.1022 7.02197 13.8102C7.05123 11.8832 7.60713 10.073 8.54339 8.52555C9.80149 6.48176 11.7325 4.90512 14.0147 4.0876C15.0972 3.70804 16.2968 3.50366 17.5256 3.50366C19.5444 3.50366 21.417 4.0584 22.9969 5.0511C25.9227 6.86132 27.9123 10.073 28 13.7518Z" fill="#057A96"/>
<path d="M28 13.7518C27.9123 10.073 25.9227 6.8613 22.9676 5.05109C21.3584 4.08758 19.4859 3.50365 17.4964 3.50365C16.2675 3.50365 15.0972 3.70803 13.9854 4.08759C11.7033 4.90511 9.77222 6.48174 8.51412 8.52553C7.57786 10.073 7.02196 11.8832 6.9927 13.8102C6.9927 13.8686 6.9927 13.927 6.9927 13.9854C6.9927 14.0438 6.9927 14.1022 6.9927 14.1606C7.05122 16.0876 7.87045 17.8102 9.1578 19.0365C9.24558 19.1241 9.30409 19.1825 9.39187 19.2701C9.47964 19.3285 9.56742 19.416 9.6552 19.4744C10.0941 19.8248 10.5329 20.0876 11.0596 20.3212C11.4985 20.5255 11.9958 20.7007 12.464 20.7883C12.8736 20.8759 13.3125 20.9343 13.7513 20.9635C11.8496 20.9051 10.0648 20.3503 8.54338 19.4452C6.49531 18.1898 4.91538 16.2628 4.09615 13.9854C3.71579 12.9051 3.51099 11.708 3.51099 10.4817C3.51099 8.46714 4.06689 6.59853 5.06167 5.02189C6.87567 2.07299 10.0941 0.0875912 13.7806 0C13.8684 0 13.9561 0 14.0439 0C14.1317 0 14.2195 0 14.3072 0C18.0815 0.0583941 21.4755 1.63504 23.9624 4.08759C24.1087 4.23357 24.255 4.40876 24.4305 4.55474C24.5476 4.67153 24.6353 4.78832 24.7524 4.9343C24.7816 4.9635 24.8109 5.02189 24.8694 5.05109C24.9279 5.13868 25.0157 5.22627 25.0742 5.31386C25.1327 5.40145 25.2205 5.48905 25.279 5.57664C25.3961 5.75182 25.5423 5.927 25.6594 6.10218C25.7179 6.18977 25.7764 6.27736 25.8349 6.36495C25.8934 6.45255 25.952 6.54014 26.0105 6.65693C26.069 6.74452 26.1275 6.83211 26.186 6.9489C27.2686 8.99269 27.9708 11.2993 28 13.7518Z" fill="#0E2639"/>
<path d="M23.9039 14.0146C24.2842 15.0949 24.489 16.292 24.489 17.5183C24.489 19.5329 23.9331 21.4015 22.9384 22.9781C21.1243 25.927 17.906 27.9124 14.2194 28C14.1317 28 14.0439 28 13.9561 28C13.8683 28 13.7806 28 13.6928 28C12.8736 27.9708 12.0543 27.9124 11.2936 27.7372C11.1766 27.708 11.0596 27.6788 10.9718 27.6788C10.7962 27.6497 10.6499 27.5913 10.4744 27.5621C10.3574 27.5329 10.2696 27.5037 10.1526 27.4745C9.71369 27.3577 9.30408 27.2117 8.8652 27.0365C8.71891 26.9781 8.54336 26.9197 8.39707 26.8321C8.33856 26.8029 8.3093 26.7737 8.25078 26.7737C8.16301 26.7153 8.04598 26.6861 7.9582 26.6278C7.87043 26.5694 7.7534 26.5402 7.66562 26.4818C7.57785 26.4234 7.46081 26.3942 7.37304 26.3358C7.31452 26.3066 7.28527 26.2774 7.22675 26.2482C7.13898 26.1898 7.02194 26.1314 6.93417 26.073C6.75862 25.9562 6.55381 25.8394 6.37827 25.7227C5.91014 25.4307 5.47127 25.1095 5.06165 24.7591C4.71056 24.4672 4.38871 24.1752 4.09613 23.8832C1.6092 21.4015 0.0585162 18.0146 0 14.2482C0.0877743 17.927 2.07732 21.1387 5.03239 22.9489C6.64159 23.9124 8.51411 24.4964 10.5037 24.4964C11.7325 24.4964 12.9028 24.292 14.0146 23.9124C16.2968 23.0949 18.2278 21.5183 19.4859 19.4745C20.4221 17.9562 20.9781 16.1752 21.0073 14.2774C21.0073 14.2482 21.0073 14.219 21.0073 14.1898C21.0073 14.1314 21.0073 14.073 21.0073 14.0146C21.0073 13.9562 21.0073 13.8978 21.0073 13.8394C20.9781 12.8467 20.744 11.9124 20.3636 11.0657C20.1296 10.5694 19.837 10.1022 19.5152 9.66426C19.4566 9.57667 19.3689 9.48907 19.3104 9.40148C19.2518 9.31389 19.1641 9.2263 19.0763 9.16791C17.8474 7.88323 16.1212 7.06572 14.1902 7.00732C16.1212 7.03652 17.9352 7.59126 19.4859 8.52557C21.5047 9.81024 23.1139 11.7372 23.9039 14.0146Z" fill="#00C7C7"/>
<path d="M21.0073 14.2774C20.9488 16.1752 20.3929 17.9562 19.4859 19.4745C18.2278 21.5183 16.2968 23.0949 14.0146 23.9124C12.9321 24.292 11.7325 24.4964 10.5037 24.4964C8.48485 24.4964 6.61233 23.9416 5.03239 22.9489C2.07732 21.1387 0.0877743 17.927 0 14.2482C0 14.1606 0 14.073 0 13.9854C0 13.8978 0 13.8102 0 13.7226C0.14629 6.21898 6.23198 0.145986 13.7513 0C10.0648 0.0875913 6.84639 2.07299 5.03239 5.0219C4.06687 6.62774 3.48172 8.49636 3.48172 10.4818C3.48172 11.708 3.68652 12.8759 4.06688 13.9854C4.88611 16.2628 6.46604 18.1898 8.5141 19.4453C10.0355 20.3796 11.8203 20.9343 13.7221 20.9635C13.7513 20.9635 13.7806 20.9635 13.8098 20.9635C13.8683 20.9635 13.9269 20.9635 13.9854 20.9635C14.0439 20.9635 14.1024 20.9635 14.1609 20.9635C14.6291 20.9635 15.0679 20.9051 15.5068 20.7883C16.0042 20.6715 16.4723 20.5256 16.9112 20.3212C17.4086 20.0876 17.8767 19.7956 18.3156 19.4745C18.4033 19.4161 18.4911 19.3285 18.5789 19.2701C18.6667 19.2117 18.7544 19.1241 18.813 19.0365C18.9007 18.9489 18.9592 18.8905 19.047 18.8029C19.1348 18.7153 19.1933 18.657 19.2811 18.5694C19.3396 18.4818 19.4274 18.3942 19.4859 18.3066C19.837 17.8686 20.1003 17.4307 20.3344 16.9051C20.744 16.146 20.9781 15.2409 21.0073 14.2774Z" fill="#F6BE00"/>
</svg>
