<svg width="40" height="40" viewBox="0 0 40 40" fill="none" xmlns="http://www.w3.org/2000/svg">
<rect width="40" height="40" rx="3" fill="white"/>
<g clip-path="url(#clip0)">
<path d="M26.2914 18.7092C26.3508 18.3335 26.3878 17.9216 26.3972 17.4597C26.3936 15.4791 25.4455 14.7783 25.2631 14.4497C25.5317 12.9491 25.2186 12.2665 25.0729 12.0328C24.5357 11.8421 23.2038 12.5249 22.4761 13.0056C21.2897 12.6583 18.7823 12.6922 17.842 13.0955C16.1072 11.8533 15.1896 12.0427 15.1896 12.0427C15.1896 12.0427 14.5964 13.1064 15.0328 14.6626C14.4619 15.39 14.0365 15.9043 14.0365 17.2684C14.0365 17.5952 14.0568 17.9039 14.0912 18.2009C14.5828 20.7856 16.6309 21.9007 18.6427 22.093C18.34 22.323 17.9765 22.7584 17.9262 23.2628C17.5458 23.5087 16.7806 23.59 16.1856 23.403C15.3519 23.1395 15.0328 21.4886 13.7843 21.7241C13.5141 21.7746 13.5678 21.9528 13.8017 22.1047C14.1821 22.3514 14.5403 22.6581 14.8165 23.3144C15.0286 23.8182 15.4746 24.7178 16.8849 24.7178C17.4447 24.7178 17.8369 24.6517 17.8369 24.6517C17.8369 24.6517 17.8475 25.9356 17.8475 26.4363C17.8475 27.0126 17.0698 27.1744 17.0698 27.4509C17.0698 27.5608 19.0977 27.4948 19.3045 27.4948C19.7134 27.4948 19.5051 27.5098 19.4717 26.5587C19.4717 26.0828 19.7726 24.5489 19.7726 24.2688C19.7726 23.6568 19.1291 23.4694 19.1291 23.4694C19.1291 23.4694 19.1692 26.7364 19.0501 27.1744C18.9105 27.6895 18.1178 26.8309 18.1178 27.0602C18.1178 27.4023 18.8365 27.4927 20.6752 27.5086C21.3772 27.4816 20.8423 24.1852 20.8423 24.1852L20.4377 23.3858C20.4377 23.3858 20.4409 24.8531 20.4315 25.5235C20.4216 26.2178 18.6192 27.4981 20.7624 27.5098C21.7073 27.4816 22.3132 27.6113 22.3132 27.1744C22.3132 26.9212 21.2816 27.361 21.2816 26.675V23.5149C20.7624 24.7178 20.4373 24.6517 20.4373 24.6517L19.9397 26.7426C19.9397 26.7426 20.9259 27.595 22.5952 27.4816C23.4331 27.4816 23.5318 27.6145 23.5617 27.4391C23.5917 27.2632 22.7932 27.0032 22.7856 26.4582C22.7815 26.1262 22.8005 25.9319 22.8005 24.488C22.8005 23.0449 22.6066 22.5111 21.9311 22.0856C23.8901 21.8846 25.9249 21.0097 26.2914 18.7092Z" fill="#0E2639"/>
</g>
<defs>
<clipPath id="clip0">
<rect width="16" height="16" fill="white" transform="translate(12 12)"/>
</clipPath>
</defs>
</svg>
