<svg width="40" height="40" viewBox="0 0 40 40" fill="none" xmlns="http://www.w3.org/2000/svg">
<rect width="40" height="40" rx="3" fill="white"/>
<g clip-path="url(#clip0)">
<path d="M26.2914 18.7091C26.3508 18.3335 26.3878 17.9215 26.3972 17.4596C26.3936 15.479 25.4455 14.7782 25.2631 14.4497C25.5317 12.949 25.2186 12.2664 25.0729 12.0327C24.5357 11.842 23.2038 12.5249 22.4761 13.0056C21.2897 12.6583 18.7823 12.6922 17.842 13.0955C16.1072 11.8532 15.1896 12.0426 15.1896 12.0426C15.1896 12.0426 14.5964 13.1064 15.0328 14.6626C14.4619 15.39 14.0365 15.9042 14.0365 17.2684C14.0365 17.5951 14.0568 17.9038 14.0912 18.2008C14.5828 20.7856 16.6309 21.9007 18.6427 22.093C18.34 22.323 17.9765 22.7583 17.9262 23.2627C17.5458 23.5087 16.7806 23.59 16.1856 23.4029C15.3519 23.1395 15.0328 21.4885 13.7843 21.724C13.5141 21.7746 13.5678 21.9528 13.8017 22.1047C14.1821 22.3514 14.5403 22.6581 14.8165 23.3143C15.0286 23.8182 15.4746 24.7178 16.8849 24.7178C17.4447 24.7178 17.8369 24.6516 17.8369 24.6516C17.8369 24.6516 17.8475 25.9355 17.8475 26.4363C17.8475 27.0125 17.0698 27.1743 17.0698 27.4508C17.0698 27.5608 19.0977 27.4947 19.3045 27.4947C19.7134 27.4947 19.5051 27.5097 19.4717 26.5587C19.4717 26.0827 19.7726 24.5488 19.7726 24.2687C19.7726 23.6567 19.1291 23.4694 19.1291 23.4694C19.1291 23.4694 19.1692 26.7364 19.0501 27.1744C18.9105 27.6895 18.1178 26.8309 18.1178 27.0601C18.1178 27.4022 18.8365 27.4926 20.6752 27.5085C21.3772 27.4815 20.8423 24.1851 20.8423 24.1851L20.4377 23.3858C20.4377 23.3858 20.4409 24.8531 20.4315 25.5234C20.4216 26.2177 18.6192 27.498 20.7624 27.5097C21.7073 27.4815 22.3132 27.6113 22.3132 27.1744C22.3132 26.9212 21.2816 27.3609 21.2816 26.6749V23.5149C20.7624 24.7178 20.4373 24.6516 20.4373 24.6516L19.9397 26.7425C19.9397 26.7425 20.9259 27.595 22.5952 27.4815C23.4331 27.4815 23.5318 27.6144 23.5617 27.439C23.5917 27.2632 22.7932 27.0031 22.7856 26.4581C22.7815 26.1261 22.8005 25.9319 22.8005 24.4879C22.8005 23.0448 22.6066 22.511 21.9311 22.0856C23.8901 21.8845 25.9249 21.0096 26.2914 18.7091Z" fill="#989898"/>
</g>
<defs>
<clipPath id="clip0">
<rect width="16" height="16" fill="white" transform="translate(12 12)"/>
</clipPath>
</defs>
</svg>
