<svg width="400" height="292" viewBox="0 0 400 292" fill="none" xmlns="http://www.w3.org/2000/svg">
<g clip-path="url(#clip0)">
<path d="M199.218 290.802C254.203 290.802 298.777 283.332 298.777 274.117C298.777 264.902 254.203 257.432 199.218 257.432C144.233 257.432 99.6587 264.902 99.6587 274.117C99.6587 283.332 144.233 290.802 199.218 290.802Z" fill="#FFF9E3"/>
<path opacity="0.45" d="M175.305 100.487C175.307 100.673 175.32 100.86 175.345 101.044C175.32 100.86 175.306 100.673 175.305 100.487Z" fill="#EFF9F9"/>
<path opacity="0.45" d="M225.441 88.5017C225.449 88.5515 225.458 88.6007 225.464 88.651C225.458 88.6006 225.449 88.5515 225.441 88.5017Z" fill="#EFF9F9"/>
<path opacity="0.45" d="M225.337 88.0076C225.351 88.0593 225.365 88.1114 225.377 88.1639C225.365 88.1113 225.351 88.0594 225.337 88.0076Z" fill="#EFF9F9"/>
<path opacity="0.45" d="M225.389 101.425C225.37 101.51 225.348 101.595 225.324 101.678C225.348 101.595 225.37 101.51 225.389 101.425Z" fill="#EFF9F9"/>
<path opacity="0.45" d="M225.459 101.015C225.448 101.106 225.435 101.197 225.418 101.286C225.435 101.197 225.448 101.106 225.459 101.015Z" fill="#EFF9F9"/>
<path opacity="0.45" d="M177.624 104.296C177.29 104.122 176.98 103.904 176.703 103.65C176.98 103.904 177.29 104.122 177.624 104.296Z" fill="#EFF9F9"/>
<path opacity="0.45" d="M176.669 103.619C176.539 103.497 176.416 103.367 176.302 103.23C176.416 103.367 176.539 103.497 176.669 103.619Z" fill="#EFF9F9"/>
<path opacity="0.45" d="M250.654 185.647C250.604 185.477 250.542 185.31 250.471 185.147C250.542 185.31 250.603 185.477 250.654 185.647Z" fill="#EFF9F9"/>
<path opacity="0.45" d="M248.512 183.059C248.682 183.148 248.846 183.248 249.003 183.358C248.846 183.248 248.683 183.148 248.512 183.059Z" fill="#EFF9F9"/>
<path opacity="0.45" d="M249.476 183.744C249.739 183.991 249.97 184.27 250.163 184.574C249.97 184.27 249.739 183.991 249.476 183.744Z" fill="#EFF9F9"/>
<path opacity="0.45" d="M249.018 183.369C249.161 183.471 249.297 183.581 249.426 183.7C249.297 183.581 249.161 183.471 249.018 183.369Z" fill="#EFF9F9"/>
<path opacity="0.45" d="M250.434 185.071C250.369 184.932 250.297 184.796 250.218 184.665C250.297 184.796 250.369 184.932 250.434 185.071Z" fill="#EFF9F9"/>
<path opacity="0.45" d="M250.773 186.176C250.749 186.033 250.719 185.892 250.681 185.752C250.719 185.892 250.749 186.033 250.773 186.176Z" fill="#EFF9F9"/>
<path d="M380.528 162.64H355.774C356.345 162.245 356.812 161.717 357.135 161.103C357.457 160.488 357.626 159.805 357.626 159.111V147.772C357.626 147.208 357.514 146.649 357.298 146.128C357.081 145.606 356.764 145.133 356.364 144.734C355.964 144.335 355.49 144.018 354.967 143.802C354.444 143.586 353.884 143.475 353.319 143.475H324.826C325.696 143.198 326.455 142.652 326.994 141.916C327.533 141.18 327.823 140.293 327.824 139.381V128.042C327.824 127.349 327.655 126.665 327.333 126.051C327.01 125.436 326.543 124.909 325.972 124.514H353.319C353.884 124.514 354.444 124.403 354.967 124.187C355.49 123.971 355.964 123.654 356.364 123.255C356.764 122.856 357.081 122.383 357.298 121.861C357.514 121.34 357.626 120.781 357.626 120.217V108.878C357.626 108.313 357.514 107.755 357.298 107.233C357.081 106.712 356.764 106.238 356.364 105.839C355.964 105.44 355.49 105.124 354.967 104.908C354.444 104.692 353.884 104.581 353.319 104.58H322.877C323.747 104.303 324.506 103.758 325.045 103.022C325.584 102.286 325.874 101.398 325.874 100.487V89.1478C325.875 88.4541 325.706 87.7707 325.384 87.1562C325.061 86.5416 324.594 86.0143 324.022 85.6194H353.319C353.884 85.6194 354.444 85.5083 354.967 85.2923C355.49 85.0763 355.964 84.7598 356.364 84.3608C356.764 83.9617 357.081 83.488 357.298 82.9667C357.514 82.4453 357.626 81.8865 357.626 81.3222V69.9831C357.626 69.4188 357.514 68.86 357.298 68.3387C357.081 67.8173 356.764 67.3436 356.364 66.9446C355.964 66.5455 355.49 66.229 354.967 66.0131C354.444 65.7971 353.884 65.686 353.319 65.686H337.982C338.852 65.4089 339.612 64.863 340.151 64.1271C340.689 63.3913 340.98 62.5037 340.98 61.5923V50.2532C340.98 49.6889 340.869 49.1301 340.652 48.6088C340.436 48.0874 340.119 47.6137 339.719 47.2147C339.319 46.8156 338.844 46.4991 338.321 46.2831C337.799 46.0672 337.239 45.956 336.673 45.9561H295.097C294.532 45.956 293.972 46.0672 293.449 46.2831C292.927 46.4991 292.452 46.8156 292.052 47.2146C291.652 47.6137 291.335 48.0874 291.118 48.6088C290.902 49.1301 290.79 49.6889 290.79 50.2532C290.79 49.6889 290.679 49.1301 290.463 48.6088C290.246 48.0874 289.929 47.6137 289.529 47.2146C289.129 46.8156 288.654 46.4991 288.132 46.2831C287.609 46.0672 287.049 45.956 286.484 45.9561H244.908C244.087 45.9564 243.284 46.1909 242.592 46.6317C241.901 47.0725 241.35 47.7014 241.005 48.4442C241.06 48.7197 241.088 49 241.088 49.2809V60.62C241.088 61.2441 240.95 61.8606 240.685 62.426C240.879 63.405 241.409 64.286 242.184 64.9171H252.861C253.856 64.9158 254.82 65.2595 255.589 65.8895H260.244C259.374 66.1666 258.615 66.7125 258.076 67.4483C257.537 68.1841 257.247 69.0718 257.246 69.9831C257.245 69.7098 257.219 69.4371 257.166 69.1689C257.166 69.1842 257.168 69.199 257.168 69.2143V80.5534C257.167 80.9151 257.12 81.2751 257.028 81.625C257.097 81.6979 257.159 81.7773 257.213 81.8621C257.235 81.683 257.246 81.5027 257.246 81.3222C257.249 81.5714 257.273 81.8198 257.319 82.0648C257.376 82.2015 257.408 82.3471 257.415 82.495C257.687 83.4505 258.282 84.2827 259.098 84.8506H255.394C255.427 84.8276 255.457 84.7998 255.489 84.7759C255.145 84.7845 254.799 84.747 254.455 84.743C254.332 84.7415 254.21 84.7164 254.097 84.669C253.696 84.7892 253.28 84.8503 252.861 84.8506L227.347 85.6194C226.776 86.0143 226.308 86.5416 225.986 87.1561C225.663 87.7707 225.495 88.4541 225.495 89.1478V100.487C225.495 101.398 225.786 102.286 226.325 103.022C226.863 103.757 227.623 104.303 228.493 104.58L252.861 104.784C253.29 104.784 253.716 104.848 254.125 104.973C254.397 104.997 254.667 105.044 254.93 105.114C254.951 105.11 254.971 105.108 254.991 105.104C254.755 104.974 254.506 104.867 254.249 104.784H260.244C259.374 105.061 258.615 105.607 258.076 106.343C257.537 107.079 257.246 107.966 257.246 108.878C257.246 108.628 257.224 108.38 257.181 108.134C257.152 108.175 257.121 108.214 257.086 108.25C257.14 108.524 257.168 108.802 257.168 109.081V120.42C257.168 120.946 257.246 120.82 257.246 120.217C257.246 120.91 257.415 121.594 257.737 122.208C258.06 122.823 258.527 123.35 259.098 123.745L274.302 124.231C274.823 124.232 275.34 124.328 275.827 124.514H279.486C278.831 124.971 278.316 125.599 277.998 126.331C278.397 126.994 278.608 127.754 278.608 128.529V139.868C278.609 140.46 278.486 141.045 278.247 141.587C278.786 142.484 279.634 143.155 280.632 143.475H276.637C275.942 143.926 275.13 144.165 274.302 144.165H259.22C258.614 144.553 258.117 145.087 257.772 145.717C257.427 146.348 257.246 147.054 257.246 147.772C257.246 146.258 256.681 161.181 256.681 161.181C256.681 162.521 280.149 163.126 280.149 163.126C280.745 163.126 281.335 163.25 281.881 163.49C282.126 163.438 282.376 163.416 282.626 163.426C282.618 163.421 282.612 163.414 282.604 163.408H286.308C285.736 163.803 285.269 164.331 284.947 164.945C284.624 165.56 284.456 166.243 284.456 166.937C284.455 166.732 284.439 166.527 284.408 166.324C284.388 166.371 284.367 166.417 284.344 166.461C284.417 166.776 284.455 167.099 284.456 167.423V178.276C284.456 178.84 284.567 179.399 284.784 179.92C285 180.442 285.317 180.916 285.717 181.315C286.117 181.714 286.592 182.03 287.115 182.246C287.637 182.462 288.197 182.573 288.763 182.573H282.134C281.522 182.893 280.84 183.06 280.149 183.059H253.155C252.455 183.422 251.869 183.969 251.46 184.641C251.05 185.313 250.834 186.084 250.834 186.87V198.209C250.834 198.774 250.945 199.333 251.161 199.854C251.378 200.375 251.695 200.849 252.095 201.248C252.495 201.647 252.97 201.964 253.492 202.18C254.015 202.395 254.575 202.507 255.14 202.507H296.716C297.282 202.507 297.842 202.396 298.365 202.18C298.887 201.964 299.362 201.647 299.762 201.248C300.162 200.849 300.479 200.375 300.695 199.854C300.912 199.333 301.023 198.774 301.023 198.209C301.023 198.774 301.135 199.333 301.351 199.854C301.568 200.375 301.885 200.849 302.285 201.248C302.685 201.647 303.159 201.964 303.682 202.18C304.205 202.396 304.765 202.507 305.33 202.507H346.906C347.472 202.507 348.032 202.396 348.554 202.18C349.077 201.964 349.552 201.647 349.952 201.248C350.351 200.849 350.669 200.375 350.885 199.854C351.102 199.333 351.213 198.774 351.213 198.209V186.87C351.213 186.306 351.102 185.747 350.885 185.226C350.669 184.705 350.351 184.231 349.952 183.832C349.552 183.433 349.077 183.116 348.554 182.9C348.032 182.684 347.472 182.573 346.906 182.573H380.528C381.094 182.573 381.654 182.462 382.176 182.246C382.699 182.03 383.174 181.714 383.574 181.315C383.974 180.916 384.291 180.442 384.507 179.92C384.724 179.399 384.835 178.84 384.835 178.276V166.937C384.835 166.373 384.724 165.814 384.507 165.292C384.291 164.771 383.974 164.297 383.574 163.898C383.174 163.499 382.699 163.183 382.176 162.967C381.654 162.751 381.094 162.64 380.528 162.64ZM277.537 85.6194C276.965 86.0143 276.498 86.5416 276.176 87.1562C275.853 87.7707 275.685 88.4541 275.685 89.1478C275.685 88.4541 275.517 87.7707 275.194 87.1562C274.871 86.5416 274.404 86.0143 273.833 85.6194H277.537ZM272.687 104.58C273.557 104.303 274.316 103.758 274.855 103.022C275.394 102.286 275.685 101.398 275.685 100.487C275.685 101.398 275.975 102.286 276.514 103.022C277.053 103.758 277.812 104.303 278.683 104.58H272.687ZM287.793 65.686C288.663 65.4089 289.422 64.863 289.961 64.1271C290.5 63.3913 290.79 62.5037 290.79 61.5923C290.791 62.5037 291.081 63.3913 291.62 64.1271C292.159 64.863 292.918 65.4089 293.788 65.686H287.793ZM301.023 186.87C301.023 186.306 300.912 185.747 300.695 185.226C300.479 184.705 300.162 184.231 299.762 183.832C299.362 183.433 298.887 183.116 298.365 182.9C297.842 182.684 297.282 182.573 296.716 182.573H305.33C304.765 182.573 304.205 182.684 303.682 182.9C303.159 183.116 302.685 183.433 302.285 183.832C301.885 184.231 301.568 184.705 301.351 185.226C301.135 185.747 301.023 186.306 301.023 186.87ZM305.584 162.64C306.156 162.245 306.623 161.717 306.945 161.103C307.268 160.488 307.436 159.805 307.436 159.111C307.436 159.805 307.604 160.488 307.927 161.103C308.249 161.718 308.716 162.245 309.288 162.64H305.584ZM307.436 147.772C307.436 146.861 307.145 145.973 306.606 145.237C306.068 144.502 305.308 143.956 304.438 143.679H310.434C309.564 143.956 308.804 144.502 308.266 145.237C307.727 145.973 307.436 146.861 307.436 147.772ZM305.584 123.745C306.156 123.35 306.623 122.823 306.945 122.208C307.268 121.594 307.436 120.91 307.436 120.217C307.436 120.911 307.604 121.594 307.927 122.208C308.249 122.823 308.716 123.35 309.288 123.745H305.584ZM307.436 108.878C307.436 107.966 307.145 107.079 306.606 106.343C306.068 105.607 305.308 105.061 304.438 104.784H310.434C309.564 105.061 308.804 105.607 308.266 106.343C307.727 107.079 307.436 107.966 307.436 108.878ZM305.584 84.8506C306.156 84.4557 306.623 83.9284 306.945 83.3139C307.268 82.6993 307.436 82.0159 307.436 81.3222C307.436 82.0159 307.604 82.6994 307.927 83.3139C308.249 83.9284 308.716 84.4557 309.288 84.8506H305.584ZM307.436 69.9831C307.436 69.0718 307.145 68.1842 306.606 67.4484C306.068 66.7125 305.308 66.1667 304.438 65.8895H310.434C309.564 66.1667 308.804 66.7125 308.266 67.4483C307.727 68.1842 307.436 69.0718 307.436 69.9831ZM336.498 163.409C335.926 163.803 335.459 164.331 335.136 164.945C334.814 165.56 334.645 166.243 334.646 166.937C334.646 166.243 334.477 165.56 334.155 164.945C333.832 164.331 333.365 163.803 332.793 163.409H336.498ZM330.339 182.573C330.904 182.573 331.464 182.462 331.987 182.246C332.509 182.03 332.984 181.714 333.384 181.315C333.784 180.916 334.101 180.442 334.318 179.92C334.534 179.399 334.646 178.84 334.646 178.276C334.646 178.84 334.757 179.399 334.973 179.92C335.19 180.442 335.507 180.916 335.907 181.315C336.307 181.714 336.782 182.03 337.304 182.246C337.827 182.462 338.387 182.573 338.952 182.573H330.339Z" fill="#EFF9F9"/>
<path opacity="0.45" d="M250.834 186.87C250.832 186.687 250.819 186.505 250.795 186.323C250.819 186.505 250.832 186.687 250.834 186.87Z" fill="#EFF9F9"/>
<path opacity="0.45" d="M225.495 100.487C225.495 100.623 225.487 100.757 225.475 100.89C225.487 100.757 225.495 100.623 225.495 100.487Z" fill="#EFF9F9"/>
<path opacity="0.45" d="M175.355 101.128C175.381 101.3 175.418 101.471 175.465 101.639C175.418 101.471 175.381 101.3 175.355 101.128Z" fill="#EFF9F9"/>
<path opacity="0.45" d="M127.158 126.464C127.086 126.401 127.024 126.328 126.974 126.247C126.912 126.136 126.87 126.014 126.852 125.888C126.841 126.183 126.845 126.478 126.865 126.772C126.995 127.183 127.063 127.611 127.065 128.042C127.067 127.623 127.13 127.207 127.254 126.806C127.215 126.709 127.184 126.608 127.163 126.506C127.16 126.492 127.16 126.478 127.158 126.464Z" fill="#EFF9F9"/>
<path d="M186.104 45.9561H144.528C143.963 45.9561 143.403 46.0672 142.88 46.2832C142.358 46.4991 141.883 46.8156 141.483 47.2147C141.083 47.6137 140.766 48.0874 140.549 48.6088C140.333 49.1301 140.222 49.6889 140.222 50.2532C140.222 49.6889 140.11 49.1301 139.894 48.6088C139.677 48.0874 139.36 47.6137 138.96 47.2147C138.56 46.8156 138.085 46.4991 137.563 46.2832C137.04 46.0672 136.48 45.9561 135.915 45.9561H94.3388C93.7732 45.9561 93.2131 46.0672 92.6906 46.2832C92.1681 46.4991 91.6933 46.8156 91.2933 47.2147C90.8934 47.6137 90.5762 48.0874 90.3597 48.6088C90.1433 49.1301 90.0319 49.6889 90.0319 50.2532V61.5923C90.0321 62.5037 90.3226 63.3913 90.8614 64.1271C91.4003 64.863 92.1596 65.4089 93.0297 65.686H60.7946C60.2291 65.686 59.669 65.7971 59.1465 66.0131C58.6239 66.229 58.1492 66.5455 57.7492 66.9445C57.3493 67.3436 57.0321 67.8173 56.8156 68.3386C56.5992 68.86 56.4878 69.4188 56.4878 69.9831V81.3222C56.4876 82.0159 56.656 82.6993 56.9785 83.3139C57.3011 83.9284 57.7682 84.4557 58.3399 84.8506H29.0434C28.4779 84.8506 27.9178 84.9617 27.3953 85.1777C26.8727 85.3937 26.3979 85.7102 25.998 86.1092C25.5981 86.5082 25.2808 86.982 25.0644 87.5033C24.848 88.0247 24.7366 88.5835 24.7366 89.1478V100.487C24.7366 101.051 24.848 101.61 25.0644 102.131C25.2808 102.653 25.5981 103.126 25.998 103.525C26.398 103.924 26.8727 104.241 27.3953 104.457C27.9178 104.673 28.4779 104.784 29.0434 104.784H59.4855C58.6154 105.061 57.8561 105.607 57.3173 106.343C56.7785 107.079 56.488 107.966 56.4878 108.878V120.217C56.4876 120.91 56.656 121.594 56.9786 122.208C57.3011 122.823 57.7682 123.35 58.3399 123.745H30.9925C30.427 123.745 29.8669 123.856 29.3444 124.072C28.8218 124.288 28.3471 124.605 27.9471 125.004C27.5472 125.403 27.23 125.877 27.0135 126.398C26.7971 126.919 26.6857 127.478 26.6857 128.042V139.381C26.6857 139.946 26.7971 140.505 27.0135 141.026C27.23 141.547 27.5472 142.021 27.9471 142.42C28.3471 142.819 28.8219 143.136 29.3444 143.352C29.8669 143.567 30.427 143.679 30.9925 143.679H59.4855C58.6154 143.956 57.8561 144.502 57.3173 145.237C56.7785 145.973 56.488 146.861 56.4878 147.772V159.111C56.4878 159.676 56.5992 160.234 56.8156 160.756C57.0321 161.277 57.3493 161.751 57.7492 162.15C58.1492 162.549 58.6239 162.865 59.1465 163.081C59.669 163.297 60.2291 163.409 60.7946 163.409H85.5493C84.9777 163.803 84.5106 164.331 84.188 164.945C83.8655 165.56 83.6971 166.243 83.6973 166.937V178.276C83.6973 179.416 84.151 180.509 84.9587 181.315C85.7664 182.12 86.8619 182.573 88.0041 182.573H54.3819C53.8163 182.573 53.2563 182.684 52.7337 182.9C52.2112 183.116 51.7364 183.433 51.3365 183.832C50.9366 184.231 50.6193 184.705 50.4029 185.226C50.1864 185.747 50.075 186.306 50.075 186.87V198.209C50.075 198.774 50.1864 199.333 50.4029 199.854C50.6193 200.375 50.9366 200.849 51.3365 201.248C51.7364 201.647 52.2112 201.964 52.7338 202.18C53.2563 202.395 53.8163 202.507 54.3819 202.507H95.9579C96.5234 202.507 97.0835 202.395 97.606 202.18C98.1285 201.964 98.6033 201.647 99.0033 201.248C99.4032 200.849 99.7205 200.375 99.9369 199.854C100.153 199.333 100.265 198.774 100.265 198.209C100.265 198.774 100.376 199.333 100.593 199.854C100.809 200.375 101.126 200.849 101.526 201.248C101.926 201.647 102.401 201.964 102.923 202.18C103.446 202.395 104.006 202.507 104.572 202.507H146.148C146.713 202.507 147.273 202.395 147.796 202.18C148.318 201.964 148.793 201.647 149.193 201.248C149.593 200.849 149.91 200.375 150.127 199.854C150.343 199.333 150.454 198.774 150.454 198.209V186.87C150.454 186.084 150.238 185.313 149.828 184.641C149.419 183.969 148.833 183.422 148.133 183.059H139.168C138.477 183.06 137.796 182.893 137.183 182.573H129.58C130.722 182.573 131.818 182.12 132.625 181.315C133.433 180.509 133.887 179.416 133.887 178.276C133.887 180.146 134.861 167.423 134.861 167.423C134.861 166.859 134.973 166.3 135.189 165.779C135.406 165.257 135.723 164.784 136.123 164.384C136.523 163.985 136.998 163.669 137.52 163.453C138.043 163.237 138.603 163.126 139.168 163.126L155.015 162.64C155.467 162.324 155.854 161.925 156.156 161.464C155.932 160.938 155.816 160.373 155.814 159.801V148.462C155.814 147.621 156.061 146.798 156.527 146.097C156.188 145.305 155.619 144.632 154.894 144.165H132.346C131.518 144.165 130.706 143.926 130.011 143.475H124.067C124.937 143.198 125.697 142.652 126.236 141.916C126.774 141.18 127.065 140.293 127.065 139.381L126.912 128.125C126.912 127.618 126.885 127.169 126.865 126.772C126.581 125.857 126 125.062 125.213 124.514H128.917C128.889 124.533 128.864 124.557 128.837 124.577C130.937 124.457 154.923 123.053 156.873 121.487C156.823 121.19 156.813 120.887 156.844 120.587C156.809 120.371 156.791 120.153 156.789 119.934V108.595C156.789 108.454 156.797 108.315 156.81 108.178C156.68 107.397 156.337 106.667 155.818 106.068C155.299 105.47 154.625 105.025 153.869 104.784H159.11C159.723 104.465 160.404 104.298 161.096 104.298H172.984C173.684 103.936 174.27 103.389 174.68 102.717C175.089 102.045 175.306 101.273 175.306 100.487V89.1478C175.306 88.4541 175.137 87.7707 174.815 87.1562C174.492 86.5416 174.025 86.0143 173.454 85.6194L161.096 84.8506C159.002 84.8506 157.616 84.0853 158.719 84.8506H155.015C155.583 84.458 156.047 83.9347 156.37 83.3249C156.692 82.7151 156.862 82.0369 156.865 81.3476C156.815 81.0858 156.79 80.82 156.789 80.5534V69.2143C156.789 69.205 156.79 69.1961 156.79 69.1868C156.646 68.4257 156.299 67.7176 155.784 67.1373C155.27 66.5569 154.609 66.1258 153.869 65.8895H158.368C159.137 65.2596 160.101 64.9158 161.096 64.9172H188.828C189.323 64.5152 189.722 64.0082 189.996 63.433C190.27 62.8579 190.412 62.2291 190.411 61.5924V50.2532C190.411 49.6889 190.3 49.1301 190.083 48.6088C189.867 48.0874 189.55 47.6137 189.15 47.2147C188.75 46.8156 188.275 46.4991 187.753 46.2832C187.23 46.0672 186.67 45.9561 186.104 45.9561ZM76.7783 85.6194C76.2067 86.0143 75.7396 86.5416 75.417 87.1562C75.0945 87.7707 74.9261 88.4541 74.9262 89.1478C74.9264 88.4541 74.758 87.7707 74.4355 87.1562C74.1129 86.5416 73.6458 86.0143 73.0742 85.6194H76.7783ZM74.9262 100.487C74.9264 101.398 75.2169 102.286 75.7557 103.022C76.2946 103.758 77.0539 104.303 77.924 104.58H71.9285C72.7986 104.303 73.5579 103.758 74.0967 103.022C74.6356 102.286 74.9261 101.398 74.9262 100.487ZM78.7274 124.514C78.1558 124.909 77.6887 125.436 77.3661 126.051C77.0436 126.665 76.8752 127.349 76.8754 128.042C76.8756 127.349 76.7072 126.665 76.3846 126.051C76.062 125.436 75.5949 124.909 75.0233 124.514H78.7274ZM73.8776 143.475C74.7477 143.198 75.507 142.652 76.0459 141.916C76.5847 141.18 76.8752 140.293 76.8754 139.381C76.8755 140.293 77.166 141.18 77.7049 141.916C78.2437 142.652 79.003 143.198 79.8731 143.475H73.8776ZM126.968 85.6194C126.396 86.0143 125.929 86.5416 125.607 87.1562C125.284 87.7707 125.116 88.4541 125.116 89.1478C125.116 88.4541 124.948 87.7707 124.625 87.1562C124.303 86.5416 123.835 86.0143 123.264 85.6194H126.968ZM100.265 186.87C100.265 186.306 100.153 185.747 99.9369 185.226C99.7205 184.705 99.4032 184.231 99.0033 183.832C98.6033 183.433 98.1286 183.116 97.606 182.9C97.0835 182.684 96.5234 182.573 95.9579 182.573H104.572C104.006 182.573 103.446 182.684 102.923 182.9C102.401 183.116 101.926 183.433 101.526 183.832C101.126 184.231 100.809 184.705 100.593 185.226C100.376 185.747 100.265 186.306 100.265 186.87ZM104.825 162.64C105.397 162.245 105.864 161.717 106.187 161.103C106.509 160.488 106.678 159.805 106.677 159.111C106.677 159.805 106.846 160.488 107.168 161.103C107.491 161.717 107.958 162.245 108.53 162.64H104.825ZM106.677 147.772C106.677 146.861 106.387 145.973 105.848 145.237C105.309 144.502 104.55 143.956 103.68 143.679H109.675C108.805 143.956 108.046 144.502 107.507 145.237C106.968 145.973 106.678 146.861 106.677 147.772ZM104.825 123.745C105.397 123.35 105.864 122.823 106.187 122.208C106.509 121.594 106.678 120.91 106.677 120.217C106.677 120.91 106.846 121.594 107.168 122.208C107.491 122.823 107.958 123.35 108.53 123.745H104.825ZM106.677 108.878C106.677 107.966 106.387 107.079 105.848 106.343C105.309 105.607 104.55 105.061 103.68 104.784H109.675C108.805 105.061 108.046 105.607 107.507 106.343C106.968 107.079 106.678 107.966 106.677 108.878ZM104.825 84.8506C105.397 84.4557 105.864 83.9284 106.187 83.3139C106.509 82.6993 106.678 82.0159 106.677 81.3222C106.677 82.0159 106.846 82.6993 107.168 83.3139C107.491 83.9284 107.958 84.4557 108.53 84.8506H104.825ZM106.677 69.9831C106.677 69.0718 106.387 68.1842 105.848 67.4483C105.309 66.7125 104.55 66.1667 103.68 65.8895H109.675C108.805 66.1667 108.046 66.7125 107.507 67.4483C106.968 68.1842 106.678 69.0718 106.677 69.9831ZM122.118 104.581C122.988 104.303 123.748 103.758 124.286 103.022C124.825 102.286 125.116 101.398 125.116 100.487C125.116 101.398 125.407 102.286 125.945 103.022C126.484 103.758 127.244 104.303 128.114 104.581H122.118ZM137.224 65.686C138.094 65.4089 138.853 64.863 139.392 64.1272C139.931 63.3913 140.221 62.5037 140.222 61.5924C140.222 62.5037 140.512 63.3913 141.051 64.1272C141.59 64.863 142.349 65.4089 143.219 65.686H137.224Z" fill="#EFF9F9"/>
<path opacity="0.45" d="M176.721 85.9702C176.742 85.9514 176.762 85.9322 176.783 85.9138C176.762 85.9322 176.742 85.9514 176.721 85.9702Z" fill="#EFF9F9"/>
<path opacity="0.45" d="M176.435 86.2539C176.414 86.2771 176.393 86.2998 176.372 86.3234C176.393 86.2998 176.414 86.2771 176.435 86.2539Z" fill="#EFF9F9"/>
<path opacity="0.45" d="M176.074 86.7022C176.084 86.6879 176.095 86.6746 176.105 86.6604C176.095 86.6746 176.084 86.6879 176.074 86.7022Z" fill="#EFF9F9"/>
<path opacity="0.45" d="M175.491 101.726C175.541 101.893 175.601 102.057 175.671 102.217C175.601 102.057 175.541 101.893 175.491 101.726Z" fill="#EFF9F9"/>
<path opacity="0.45" d="M175.95 102.747C176.047 102.901 176.153 103.048 176.269 103.189C176.153 103.048 176.047 102.901 175.95 102.747Z" fill="#EFF9F9"/>
<path opacity="0.45" d="M175.693 102.263C175.767 102.428 175.852 102.588 175.948 102.742C175.852 102.588 175.767 102.428 175.693 102.263Z" fill="#EFF9F9"/>
<path opacity="0.45" d="M175.423 88.1639C175.436 88.1114 175.449 88.0593 175.464 88.0076C175.449 88.0594 175.436 88.1113 175.423 88.1639Z" fill="#EFF9F9"/>
<path opacity="0.45" d="M175.569 87.6797C175.584 87.6369 175.599 87.5936 175.616 87.5515C175.599 87.5937 175.585 87.6369 175.569 87.6797Z" fill="#EFF9F9"/>
<path opacity="0.45" d="M175.337 88.651C175.343 88.6006 175.352 88.5515 175.359 88.5017C175.352 88.5515 175.343 88.6006 175.337 88.651Z" fill="#EFF9F9"/>
<path opacity="0.45" d="M175.806 87.1413C175.809 87.1357 175.811 87.1298 175.814 87.1243C175.811 87.1298 175.809 87.1357 175.806 87.1413Z" fill="#EFF9F9"/>
<path opacity="0.1" d="M244.038 65.8894H287.353C289.252 65.8894 290.791 64.3539 290.791 62.4598V49.3856C290.791 47.4915 289.252 45.956 287.353 45.956L244.038 45.956C242.14 45.956 240.601 47.4915 240.601 49.3856V62.4598C240.601 64.3539 242.14 65.8894 244.038 65.8894Z" fill="#0E2639" fill-opacity="0.3"/>
<path opacity="0.1" d="M310.796 85.3369H354.11C356.009 85.3369 357.548 83.8014 357.548 81.9073V68.8331C357.548 66.939 356.009 65.4035 354.11 65.4035H310.796C308.897 65.4035 307.358 66.939 307.358 68.8331V81.9073C307.358 83.8014 308.897 85.3369 310.796 85.3369Z" fill="#0E2639" fill-opacity="0.3"/>
<path opacity="0.1" d="M228.933 104.784H272.247C274.146 104.784 275.685 103.248 275.685 101.354V88.2801C275.685 86.386 274.146 84.8505 272.247 84.8505H228.933C227.034 84.8505 225.495 86.386 225.495 88.2801V101.354C225.495 103.248 227.034 104.784 228.933 104.784Z" fill="#0E2639" fill-opacity="0.3"/>
<path opacity="0.1" d="M310.796 124.718H354.11C356.009 124.718 357.548 123.182 357.548 121.288V108.214C357.548 106.32 356.009 104.784 354.11 104.784H310.796C308.897 104.784 307.358 106.32 307.358 108.214V121.288C307.358 123.182 308.897 124.718 310.796 124.718Z" fill="#0E2639" fill-opacity="0.3"/>
<path opacity="0.1" d="M310.796 163.612H354.11C356.009 163.612 357.548 162.077 357.548 160.182V147.108C357.548 145.214 356.009 143.679 354.11 143.679H310.796C308.897 143.679 307.358 145.214 307.358 147.108V160.182C307.358 162.077 308.897 163.612 310.796 163.612Z" fill="#0E2639" fill-opacity="0.3"/>
<path opacity="0.1" d="M331.51 163.126H287.592C286.914 163.126 286.254 163.346 285.712 163.752C285.169 164.158 284.773 164.728 284.583 165.378C284.595 165.554 284.583 165.732 284.548 165.905C284.525 166.007 284.495 166.107 284.459 166.205C284.458 166.221 284.456 166.238 284.456 166.255V179.931C284.456 180.761 284.786 181.556 285.374 182.143C285.963 182.73 286.76 183.059 287.592 183.059H331.51C332.342 183.059 333.139 182.73 333.727 182.143C334.315 181.556 334.646 180.761 334.646 179.931V166.255C334.646 165.844 334.565 165.437 334.407 165.057C334.249 164.678 334.019 164.333 333.727 164.042C333.436 163.752 333.09 163.521 332.71 163.364C332.33 163.207 331.922 163.126 331.51 163.126Z" fill="#0E2639" fill-opacity="0.3"/>
<path opacity="0.1" d="M254.271 202.507H297.586C299.484 202.507 301.023 200.971 301.023 199.077V186.003C301.023 184.109 299.484 182.573 297.586 182.573H254.271C252.373 182.573 250.834 184.109 250.834 186.003V199.077C250.834 200.971 252.373 202.507 254.271 202.507Z" fill="#0E2639" fill-opacity="0.3"/>
<path opacity="0.1" d="M110.037 85.3369H153.352C155.25 85.3369 156.789 83.8014 156.789 81.9073V68.8331C156.789 66.939 155.25 65.4035 153.352 65.4035H110.037C108.138 65.4035 106.599 66.939 106.599 68.8331V81.9073C106.599 83.8014 108.138 85.3369 110.037 85.3369Z" fill="#0E2639" fill-opacity="0.3"/>
<path opacity="0.1" d="M78.8507 104.784H122.166C124.064 104.784 125.603 103.248 125.603 101.354V88.2801C125.603 86.386 124.064 84.8505 122.166 84.8505H78.8507C76.9523 84.8505 75.4134 86.386 75.4134 88.2801V101.354C75.4134 103.248 76.9523 104.784 78.8507 104.784Z" fill="#0E2639" fill-opacity="0.3"/>
<path opacity="0.1" d="M59.8471 124.718H103.162C105.06 124.718 106.599 123.182 106.599 121.288V108.214C106.599 106.32 105.06 104.784 103.162 104.784H59.8471C57.9487 104.784 56.4097 106.32 56.4097 108.214V121.288C56.4097 123.182 57.9487 124.718 59.8471 124.718Z" fill="#0E2639" fill-opacity="0.3"/>
<path opacity="0.1" d="M80.3126 144.165H123.628C125.526 144.165 127.065 142.629 127.065 140.735V127.661C127.065 125.767 125.526 124.231 123.628 124.231H80.3126C78.4142 124.231 76.8752 125.767 76.8752 127.661V140.735C76.8752 142.629 78.4142 144.165 80.3126 144.165Z" fill="#0E2639" fill-opacity="0.3"/>
<path opacity="0.1" d="M59.8471 163.612H103.162C105.06 163.612 106.599 162.077 106.599 160.182V147.108C106.599 145.214 105.06 143.679 103.162 143.679H59.8471C57.9487 143.679 56.4097 145.214 56.4097 147.108V160.182C56.4097 162.077 57.9487 163.612 59.8471 163.612Z" fill="#0E2639" fill-opacity="0.3"/>
<path d="M37.1413 182.715H80.4562C82.3546 182.715 83.8936 181.218 83.8936 179.372V166.63C83.8936 164.784 82.3546 163.288 80.4562 163.288H37.1413C35.2428 163.288 33.7039 164.784 33.7039 166.63V179.372C33.7039 181.218 35.2428 182.715 37.1413 182.715Z" fill="#EFF9F9"/>
<path d="M331.18 143.499H373.575C375.433 143.499 376.939 142.037 376.939 140.234V127.788C376.939 125.985 375.433 124.523 373.575 124.523H331.18C329.322 124.523 327.815 125.985 327.815 127.788V140.234C327.815 142.037 329.322 143.499 331.18 143.499Z" fill="#EFF9F9"/>
<path d="M329.251 104.551H371.461C373.311 104.551 374.811 103.092 374.811 101.293V88.8713C374.811 87.0718 373.311 85.6129 371.461 85.6129H329.251C327.401 85.6129 325.901 87.0718 325.901 88.8713V101.293C325.901 103.092 327.401 104.551 329.251 104.551Z" fill="#EFF9F9"/>
<path opacity="0.45" d="M354.592 202.196H396.662C398.505 202.196 400 200.684 400 198.818V185.941C400 184.076 398.505 182.563 396.662 182.563H354.592C352.748 182.563 351.254 184.076 351.254 185.941V198.818C351.254 200.684 352.748 202.196 354.592 202.196Z" fill="#EFF9F9"/>
<path d="M3.43738 202.55H46.7523C48.6507 202.55 50.1897 201.022 50.1897 199.137V186.127C50.1897 184.243 48.6507 182.715 46.7523 182.715H3.43738C1.53897 182.715 1.52588e-05 184.243 1.52588e-05 186.127V199.137C1.52588e-05 201.022 1.53897 202.55 3.43738 202.55Z" fill="#EFF9F9"/>
<path d="M10.1423 163.258H53.008C54.8867 163.258 56.4097 161.75 56.4097 159.889V147.047C56.4097 145.187 54.8867 143.679 53.008 143.679H10.1423C8.26362 143.679 6.74062 145.187 6.74062 147.047V159.889C6.74062 161.75 8.26362 163.258 10.1423 163.258Z" fill="#EFF9F9"/>
<path d="M9.65735 123.716H52.9723C54.8707 123.716 56.4097 122.258 56.4097 120.459V108.041C56.4097 106.242 54.8707 104.784 52.9723 104.784H9.65735C7.75894 104.784 6.21998 106.242 6.21998 108.041V120.459C6.21998 122.258 7.75894 123.716 9.65735 123.716Z" fill="#EFF9F9"/>
<path d="M11.3099 84.8503H53.0938C54.9251 84.8503 56.4097 83.3691 56.4097 81.5419V68.9295C56.4097 67.1023 54.9251 65.6211 53.0938 65.6211H11.3099C9.47855 65.6211 7.99398 67.1023 7.99398 68.9295V81.5419C7.99398 83.3691 9.47855 84.8503 11.3099 84.8503Z" fill="#EFF9F9"/>
<path d="M43.3187 65.6211H86.6337C88.5321 65.6211 90.071 64.1081 90.071 62.2418V49.3596C90.071 47.4933 88.5321 45.9804 86.6337 45.9804L43.3187 45.9804C41.4203 45.9804 39.8813 47.4933 39.8813 49.3596V62.2418C39.8813 64.1081 41.4203 65.6211 43.3187 65.6211Z" fill="#EFF9F9"/>
<path opacity="0.1" d="M87.6217 183.059H130.937C132.835 183.059 134.374 181.524 134.374 179.63V166.555C134.374 164.661 132.835 163.126 130.937 163.126H87.6217C85.7233 163.126 84.1843 164.661 84.1843 166.555V179.63C84.1843 181.524 85.7233 183.059 87.6217 183.059Z" fill="#0E2639" fill-opacity="0.3"/>
<path d="M315.143 22.4438C321.354 22.4438 326.39 17.4196 326.39 11.2219C326.39 5.02423 321.354 0 315.143 0C308.931 0 303.895 5.02423 303.895 11.2219C303.895 17.4196 308.931 22.4438 315.143 22.4438Z" fill="#F6BE00"/>
<path opacity="0.5" d="M97.9801 31.5677H95.3042C95.5506 31.5684 95.7948 31.5206 96.0227 31.427C96.2506 31.3334 96.4577 31.1958 96.6322 31.0222C96.8067 30.8486 96.9452 30.6423 97.0397 30.4152C97.1341 30.1881 97.1828 29.9447 97.1828 29.6988C97.1828 29.4529 97.1341 29.2094 97.0397 28.9823C96.9452 28.7552 96.8067 28.5489 96.6322 28.3753C96.4577 28.2017 96.2506 28.0642 96.0227 27.9706C95.7948 27.877 95.5506 27.8291 95.3042 27.8298H73.629C73.3826 27.8291 73.1385 27.877 72.9106 27.9706C72.6827 28.0642 72.4755 28.2017 72.301 28.3753C72.1265 28.5489 71.9881 28.7552 71.8936 28.9823C71.7991 29.2094 71.7505 29.4529 71.7505 29.6988C71.7505 29.9447 71.7991 30.1881 71.8936 30.4152C71.9881 30.6423 72.1265 30.8486 72.301 31.0222C72.4755 31.1958 72.6827 31.3334 72.9106 31.427C73.1385 31.5206 73.3826 31.5684 73.629 31.5677H76.305C76.0587 31.5672 75.8147 31.6152 75.587 31.7089C75.3593 31.8026 75.1523 31.9402 74.978 32.1138C74.8037 32.2874 74.6653 32.4936 74.571 32.7206C74.4766 32.9476 74.428 33.1909 74.428 33.4367C74.428 33.6824 74.4766 33.9258 74.571 34.1528C74.6653 34.3797 74.8037 34.586 74.978 34.7595C75.1523 34.9331 75.3593 35.0707 75.587 35.1644C75.8147 35.2581 76.0587 35.3061 76.305 35.3056H72.5587C72.0628 35.307 71.5878 35.5046 71.2376 35.8549C70.8875 36.2052 70.6909 36.6798 70.6909 37.1745C70.6909 37.6693 70.8875 38.1438 71.2376 38.4942C71.5878 38.8445 72.0628 39.0421 72.5587 39.0435H94.2338C94.7297 39.0421 95.2048 38.8445 95.5549 38.4942C95.905 38.1438 96.1016 37.6693 96.1016 37.1745C96.1016 36.6798 95.905 36.2052 95.5549 35.8549C95.2048 35.5046 94.7297 35.307 94.2338 35.3056H97.9801C98.4763 35.3046 98.9517 35.1072 99.3022 34.7569C99.6527 34.4065 99.8495 33.9317 99.8495 33.4367C99.8495 32.9416 99.6527 32.4668 99.3022 32.1165C98.9517 31.7661 98.4763 31.5687 97.9801 31.5677Z" fill="#DEE3F3"/>
<path opacity="0.5" d="M313.717 9.87333H311.68C312.059 9.87333 312.421 9.72347 312.689 9.45673C312.956 9.18998 313.106 8.82819 313.106 8.45095C313.106 8.07371 312.956 7.71192 312.689 7.44517C312.421 7.17842 312.059 7.02856 311.68 7.02856H295.184C294.806 7.02856 294.444 7.17842 294.176 7.44517C293.909 7.71192 293.759 8.07371 293.759 8.45095C293.759 8.82819 293.909 9.18998 294.176 9.45673C294.444 9.72347 294.806 9.87333 295.184 9.87333H297.221C296.843 9.87333 296.48 10.0232 296.213 10.2899C295.945 10.5567 295.795 10.9185 295.795 11.2957C295.795 11.673 295.945 12.0347 296.213 12.3015C296.48 12.5682 296.843 12.7181 297.221 12.7181H294.37C294.182 12.7181 293.997 12.7549 293.824 12.8264C293.651 12.8979 293.494 13.0026 293.362 13.1347C293.229 13.2668 293.124 13.4236 293.053 13.5962C292.981 13.7687 292.944 13.9537 292.944 14.1405C292.944 14.3273 292.981 14.5122 293.053 14.6848C293.124 14.8574 293.229 15.0142 293.362 15.1463C293.494 15.2783 293.651 15.3831 293.824 15.4546C293.997 15.5261 294.182 15.5629 294.37 15.5629H310.866C311.053 15.5629 311.238 15.5261 311.411 15.4546C311.584 15.3831 311.742 15.2783 311.874 15.1463C312.006 15.0142 312.111 14.8574 312.183 14.6848C312.255 14.5122 312.291 14.3273 312.291 14.1405C312.291 13.9537 312.255 13.7687 312.183 13.5962C312.111 13.4236 312.006 13.2668 311.874 13.1347C311.742 13.0026 311.584 12.8979 311.411 12.8264C311.238 12.7549 311.053 12.7181 310.866 12.7181H313.717C314.095 12.7181 314.458 12.5682 314.725 12.3015C314.992 12.0347 315.143 11.673 315.143 11.2957C315.143 10.9185 314.992 10.5567 314.725 10.2899C314.458 10.0232 314.095 9.87333 313.717 9.87333H313.717Z" fill="#DEE3F3"/>
<path opacity="0.5" d="M149.315 5.18174H146.639C146.886 5.18245 147.13 5.13462 147.358 5.04102C147.586 4.94741 147.793 4.80986 147.967 4.63624C148.142 4.46263 148.28 4.25636 148.375 4.02926C148.469 3.80215 148.518 3.55868 148.518 3.31279C148.518 3.06691 148.469 2.82344 148.375 2.59634C148.28 2.36923 148.142 2.16296 147.967 1.98935C147.793 1.81573 147.586 1.67818 147.358 1.58457C147.13 1.49096 146.886 1.44315 146.639 1.44386H124.964C124.718 1.44315 124.474 1.49096 124.246 1.58457C124.018 1.67818 123.811 1.81573 123.636 1.98935C123.462 2.16296 123.323 2.36923 123.229 2.59634C123.134 2.82344 123.086 3.06691 123.086 3.31279C123.086 3.55868 123.134 3.80215 123.229 4.02926C123.323 4.25636 123.462 4.46263 123.636 4.63624C123.811 4.80986 124.018 4.94741 124.246 5.04102C124.474 5.13462 124.718 5.18245 124.964 5.18174H127.64C127.394 5.18124 127.15 5.22921 126.922 5.3229C126.694 5.4166 126.488 5.55419 126.313 5.72779C126.139 5.90138 126.001 6.10758 125.906 6.33458C125.812 6.56158 125.763 6.80492 125.763 7.05068C125.763 7.29643 125.812 7.53977 125.906 7.76677C126.001 7.99377 126.139 8.19997 126.313 8.37356C126.488 8.54716 126.694 8.68475 126.922 8.77845C127.15 8.87215 127.394 8.92012 127.64 8.91961H123.894C123.398 8.92104 122.923 9.11858 122.573 9.46891C122.223 9.81925 122.026 10.2938 122.026 10.7886C122.026 11.2833 122.223 11.7579 122.573 12.1082C122.923 12.4585 123.398 12.6561 123.894 12.6575H145.569C146.065 12.6561 146.54 12.4585 146.89 12.1082C147.24 11.7579 147.437 11.2833 147.437 10.7886C147.437 10.2938 147.24 9.81925 146.89 9.46891C146.54 9.11858 146.065 8.92104 145.569 8.91961H149.315C149.811 8.91861 150.287 8.72126 150.637 8.37087C150.988 8.02049 151.185 7.54569 151.185 7.05068C151.185 6.55566 150.988 6.08087 150.637 5.73048C150.287 5.3801 149.811 5.18275 149.315 5.18174Z" fill="#DEE3F3"/>
<path d="M232.154 102.727H152.013C149.227 102.727 146.969 104.98 146.969 107.76V139.446C146.969 142.225 149.227 144.479 152.013 144.479H232.154C234.94 144.479 237.198 142.225 237.198 139.446V107.76C237.198 104.98 234.94 102.727 232.154 102.727Z" fill="#057A96"/>
<path opacity="0.1" d="M230.006 138.071H154.161V138.854H230.006V138.071Z" fill="#0E2639"/>
<path opacity="0.3" d="M230.006 109.251H154.161V137.955H230.006V109.251Z" fill="#0E2639"/>
<path opacity="0.1" d="M171.815 134.64C177.592 134.64 182.276 129.967 182.276 124.202C182.276 118.437 177.592 113.764 171.815 113.764C166.037 113.764 161.353 118.437 161.353 124.202C161.353 129.967 166.037 134.64 171.815 134.64Z" fill="#0E2639"/>
<path opacity="0.1" d="M212.352 134.64C218.13 134.64 222.814 129.967 222.814 124.202C222.814 118.437 218.13 113.764 212.352 113.764C206.575 113.764 201.891 118.437 201.891 124.202C201.891 129.967 206.575 134.64 212.352 134.64Z" fill="#0E2639"/>
<path d="M199.928 144.478H184.237V153.613H199.928V144.478Z" fill="#057A96"/>
<path d="M224.775 151.002H159.392V203.191H224.775V151.002Z" fill="#057A96"/>
<path d="M226.083 213.629H158.084V220.153H226.083V213.629Z" fill="#057A96"/>
<path d="M169.199 235.81V243.638V255.381V261.904V265.818H180.968V261.904V255.381V243.638V235.81V226.677H169.199V235.81Z" fill="#057A96"/>
<path d="M204.506 226.677V235.81V243.638V255.381V261.904V265.818H216.275V261.904V255.381V243.638V235.81V226.677H204.506Z" fill="#057A96"/>
<path d="M150.486 162.745V174.813C147.256 175.376 144.246 176.823 141.792 178.994C139.517 181.097 137.748 183.685 136.617 186.566C135.104 190.223 134.368 194.285 134.068 198.124C133.698 203.304 133.941 208.508 134.792 213.631H121.715C121.16 206.418 121.337 200.23 122.057 194.917C122.865 188.926 124.36 184.05 126.254 180.084C130.043 172.156 135.431 167.855 140.165 165.519C145.788 162.745 150.486 162.745 150.486 162.745Z" fill="#057A96"/>
<path opacity="0.3" d="M180.968 226.677H169.199V235.81H180.968V226.677Z" fill="#0E2639"/>
<path opacity="0.3" d="M180.968 243.638H169.199V255.381H180.968V243.638Z" fill="#0E2639"/>
<path opacity="0.3" d="M180.968 261.904H169.199V265.818H180.968V261.904Z" fill="#0E2639"/>
<path opacity="0.3" d="M216.275 226.677H204.506V235.81H216.275V226.677Z" fill="#0E2639"/>
<path opacity="0.3" d="M216.275 243.638H204.506V255.381H216.275V243.638Z" fill="#0E2639"/>
<path opacity="0.3" d="M216.275 261.904H204.506V265.818H216.275V261.904Z" fill="#0E2639"/>
<path opacity="0.3" d="M150.486 162.745V174.813C147.256 175.376 144.246 176.823 141.792 178.994L140.165 165.519C145.788 162.745 150.486 162.745 150.486 162.745Z" fill="#0E2639"/>
<path opacity="0.3" d="M136.617 186.566C135.104 190.223 134.368 194.285 134.068 198.125L122.057 194.917C122.865 188.926 124.36 184.05 126.254 180.084L136.617 186.566Z" fill="#0E2639"/>
<path d="M233.681 162.745V174.813C236.911 175.376 239.921 176.823 242.375 178.994C244.65 181.097 246.419 183.685 247.55 186.566C249.063 190.223 249.799 194.285 250.099 198.124C250.469 203.304 250.226 208.508 249.375 213.631H262.452C263.007 206.418 262.83 200.23 262.11 194.917C261.302 188.926 259.807 184.05 257.913 180.084C254.125 172.156 248.736 167.855 244.002 165.519C238.379 162.745 233.681 162.745 233.681 162.745Z" fill="#057A96"/>
<path opacity="0.3" d="M233.681 162.745V174.813C236.911 175.376 239.921 176.823 242.375 178.994L244.002 165.519C238.379 162.745 233.681 162.745 233.681 162.745Z" fill="#0E2639"/>
<path opacity="0.3" d="M247.55 186.566C249.063 190.223 249.799 194.285 250.099 198.125L262.11 194.917C261.302 188.926 259.807 184.05 257.913 180.084L247.55 186.566Z" fill="#0E2639"/>
<path opacity="0.1" d="M199.928 144.478H184.237V145.559H199.928V144.478Z" fill="#0E2639"/>
<path opacity="0.1" d="M225.937 160.301V182.151C225.155 181.309 224.721 180.202 224.721 179.054V163.395C224.721 162.248 225.155 161.142 225.937 160.301Z" fill="#0E2639"/>
<path opacity="0.1" d="M159.624 161.742V178.099C159.546 179.133 159.116 180.109 158.405 180.866V158.974C159.116 159.731 159.546 160.708 159.624 161.742Z" fill="#0E2639"/>
<path opacity="0.1" d="M221.506 203.192H162.662V203.965H221.506V203.192Z" fill="#0E2639"/>
<path opacity="0.1" d="M190.121 220.154H161.353V220.753H190.121V220.154Z" fill="#0E2639"/>
<path opacity="0.1" d="M221.506 220.154H192.739V220.753H221.506V220.154Z" fill="#0E2639"/>
<path d="M169.065 64.0891H164.562V102.727H169.065V64.0891Z" fill="#057A96"/>
<path d="M220.699 64.0891H216.196V102.727H220.699V64.0891Z" fill="#057A96"/>
<path opacity="0.1" d="M166.663 69.4806C169.482 69.4806 171.767 67.2009 171.767 64.3887C171.767 61.5766 169.482 59.2969 166.663 59.2969C163.845 59.2969 161.56 61.5766 161.56 64.3887C161.56 67.2009 163.845 69.4806 166.663 69.4806Z" fill="#0E2639"/>
<path d="M166.663 69.181C169.482 69.181 171.767 66.9013 171.767 64.0892C171.767 61.277 169.482 58.9973 166.663 58.9973C163.845 58.9973 161.56 61.277 161.56 64.0892C161.56 66.9013 163.845 69.181 166.663 69.181Z" fill="#057A96"/>
<path opacity="0.1" d="M218.597 69.4806C221.416 69.4806 223.701 67.2009 223.701 64.3887C223.701 61.5766 221.416 59.2969 218.597 59.2969C215.779 59.2969 213.494 61.5766 213.494 64.3887C213.494 67.2009 215.779 69.4806 218.597 69.4806Z" fill="#0E2639"/>
<path d="M218.597 69.181C221.416 69.181 223.701 66.9013 223.701 64.0892C223.701 61.277 221.416 58.9973 218.597 58.9973C215.779 58.9973 213.494 61.277 213.494 64.0892C213.494 66.9013 215.779 69.181 218.597 69.181Z" fill="#057A96"/>
</g>
<defs>
<clipPath id="clip0">
<rect width="400" height="292" fill="white"/>
</clipPath>
</defs>
</svg>
