<svg width="85" height="31" viewBox="0 0 85 31" fill="none" xmlns="http://www.w3.org/2000/svg">
<path d="M1.88856 20.0005C1.91883 20.0631 1.9491 20.1257 2.00964 20.2196C2.85721 21.7219 4.03776 23.1302 5.52101 23.9439C5.55128 23.9439 5.55127 23.9752 5.58155 23.9752C6.67128 24.6325 7.91237 25.1645 9.21399 25.4775C9.3048 25.5088 9.36535 25.5088 9.45616 25.5401C9.97076 25.634 10.4551 25.7279 10.9999 25.7904C12.241 25.8843 13.4216 25.7592 14.5113 25.3836C15.4497 25.0393 16.3275 24.5073 17.1146 23.7562C18.2648 22.6921 19.2335 21.315 19.96 19.7189C19.9902 19.6563 20.0205 19.5624 20.0508 19.4998C20.8378 17.7159 21.2919 15.7129 21.3827 13.7099C21.3827 13.5534 21.413 13.3656 21.413 13.2091C21.3827 14.3358 21.1708 15.4625 20.8076 16.5266C20.5957 17.1525 20.293 17.7472 19.9903 18.3105C19.9297 18.4357 19.8692 18.5296 19.7784 18.6548C19.7178 18.78 19.627 18.8739 19.5665 18.9677C19.5059 19.0616 19.4151 19.1868 19.3546 19.2807C19.2638 19.3746 19.2032 19.4685 19.1124 19.5937C19.0216 19.6876 18.9611 19.7815 18.8702 19.8753C18.4465 20.3448 17.9924 20.7517 17.5081 21.0959C16.6605 21.6906 15.7221 22.0974 14.7535 22.2852C14.6929 22.2852 14.6324 22.3165 14.5719 22.3165C14.5113 22.3165 14.4508 22.3478 14.3902 22.3478C14.36 22.3478 14.3297 22.3478 14.2994 22.3478C12.8162 22.5669 11.3935 22.4417 10.1221 22.0974C9.75886 22.0035 9.42589 21.9096 9.12318 21.7845C7.09507 21.002 5.58155 19.4372 4.82479 17.4968C4.64316 17.0273 4.52209 16.5579 4.43127 16.0571C4.34046 15.5564 4.31019 15.0556 4.31019 14.5549C4.34047 12.8962 4.94587 11.2687 5.91452 9.51609C7.70047 6.22993 10.7881 2.63079 14.2994 1.5354C10.7275 2.38041 7.45831 6.13603 5.03668 8.73367C2.61505 11.5504 0.98045 13.1465 0.798828 15.4312C0.798828 15.4938 0.798828 15.5564 0.798828 15.619C0.798828 15.6816 0.798828 15.7442 0.798828 15.8068C0.798828 16.9647 1.1318 18.3731 1.79775 19.7189C1.76748 19.7502 1.82802 19.8753 1.88856 20.0005Z" fill="#FF5F00"/>
<path d="M65.7281 11.3626C65.7281 13.7725 63.3064 16.8082 63.3064 16.8082L58.7356 23.005H66.0308V26.7607H51.4102L60.794 13.9915C61.4599 13.0839 62.0351 12.1763 62.0351 11.3626V11.0809C62.0351 9.42219 60.7334 8.07642 59.1291 8.07642C57.5248 8.07642 56.2232 9.42219 56.2232 11.0809H52.5302C52.5302 7.3253 55.4967 4.25821 59.1291 4.25821C62.7616 4.25821 65.7281 7.3253 65.7281 11.0809V11.3626Z" fill="#0E2639"/>
<path d="M48.9283 23.005V26.7607H35.5186V4.25821H39.1207V23.0363H48.9283V23.005Z" fill="#0E2639"/>
<path d="M84.647 8.10774H78.2903C75.6567 8.10774 74.5973 9.92296 74.567 13.303H82.5584V17.0273H74.567V26.7607H70.9346V16.6205V13.303V13.2404C70.9346 7.82606 73.3259 4.35211 78.26 4.35211H84.6168V8.10774H84.647Z" fill="#0E2639"/>
<path d="M26.196 5.41619C26.1355 5.291 26.0749 5.16582 26.0144 5.04063C25.9538 4.91545 25.8933 4.79025 25.8328 4.66507C25.7722 4.53988 25.7117 4.41469 25.6511 4.3208C25.5301 4.10172 25.409 3.88264 25.2576 3.66356C25.1971 3.56967 25.1365 3.44449 25.0457 3.3506C24.9852 3.2567 24.8944 3.16282 24.8338 3.06893C24.8036 3.00633 24.7733 2.97504 24.743 2.94374C24.6522 2.81855 24.5311 2.69336 24.4101 2.56817C24.2587 2.41169 24.1074 2.25521 23.956 2.09873C21.5344 -0.0607575 18.2652 0.346102 14.6933 1.3163C14.6025 1.3476 14.5116 1.3789 14.4208 1.4102C14.33 1.44149 14.2392 1.47279 14.1484 1.50408C10.637 2.63077 7.54946 6.22991 5.76351 9.48478C4.79485 11.2374 4.21972 12.8335 4.15918 14.5236C4.15918 15.0243 4.18945 15.5251 4.28026 16.0258C4.37107 16.5266 4.49215 16.996 4.67377 17.4655C5.43053 19.4059 6.94405 20.9707 8.97217 21.7532C9.30514 21.8783 9.63811 21.9722 9.97109 22.0661C11.2424 22.4104 12.6349 22.5043 14.1484 22.3165C13.1798 22.4417 12.2716 22.3478 11.4543 22.16C10.97 22.0348 10.4857 21.847 10.0922 21.628C10.0014 21.5967 9.94082 21.5341 9.85001 21.5028C9.7592 21.4402 9.69866 21.4089 9.60785 21.3463C8.33649 20.5013 7.54945 19.2181 7.51918 17.622C7.51918 17.5594 7.51918 17.5281 7.51918 17.4655C7.51918 17.4029 7.51918 17.3716 7.51918 17.309C7.54945 16.8395 7.57972 16.4014 7.67054 15.9319C7.9127 14.6801 8.39703 13.3969 9.06297 12.0511C10.2132 9.79776 11.9084 7.4192 13.9062 5.66657C14.0576 5.54138 14.2089 5.38489 14.3603 5.25971C15.4198 4.41469 16.5398 3.72616 17.7203 3.25671C18.1441 3.10022 18.5981 2.94374 19.0219 2.84985C20.4749 2.50559 21.8068 2.53688 23.0176 3.13152C24.0165 3.53838 24.8944 4.47729 25.6511 5.79176C27.0739 8.26421 28.0122 11.9572 28.1333 15.3686C28.1333 11.9885 27.3766 8.13902 26.196 5.41619Z" fill="#0E2639"/>
<path d="M28.2537 15.6816C28.2537 15.5564 28.2537 15.4312 28.2537 15.306C28.1327 11.8946 27.1943 8.2016 25.7716 5.72915C25.0148 4.44598 24.137 3.47577 23.1381 3.06891C21.9272 2.47427 20.5954 2.41168 19.1424 2.78724C18.7186 2.88113 18.2948 3.03761 17.8407 3.1941C16.6602 3.66355 15.5402 4.35209 14.4807 5.19711C14.3294 5.32229 14.178 5.44748 14.0267 5.60396C12.0288 7.35658 10.3337 9.73514 9.18343 11.9885C8.51748 13.3343 8.03316 14.6174 7.791 15.8693C7.73046 16.2449 7.66992 16.5892 7.63965 16.9647C7.97262 13.9289 10.8483 10.0481 14.3294 8.10771C14.3899 8.07641 14.4505 8.04512 14.511 8.01382C14.5716 7.98253 14.6321 7.95122 14.6926 7.91993C16.5694 7.01232 18.3251 6.69935 19.8386 7.2001C20.444 7.38788 21.0191 7.73214 21.564 8.2016C22.7445 9.26569 23.6829 10.987 24.2581 13.1778C24.6516 14.6488 24.8937 16.2762 24.924 17.9349C24.9543 20.6264 24.4397 23.0363 23.5013 25.0706C22.1391 28.1064 19.8689 30.2033 17.1748 30.3285H17.1445C16.3878 30.3598 15.6007 30.2346 14.7834 29.9529C18.5975 31.6116 22.0181 29.4209 24.4397 26.8232C26.8613 24.0378 28.3143 20.8455 28.284 16.0571C28.2537 15.9319 28.2537 15.8067 28.2537 15.6816Z" fill="#057A96"/>
<path d="M24.2285 13.1465C23.6534 10.987 22.715 9.23441 21.5345 8.17031C21.0199 7.70086 20.4447 7.35659 19.8091 7.16881C18.2955 6.66806 16.5399 6.98102 14.6631 7.88863C16.5096 7.01232 18.2047 6.98103 19.4156 7.91993C19.4761 7.98253 19.5669 8.04512 19.6274 8.10771C19.688 8.17031 19.7788 8.2329 19.8393 8.2955C20.1723 8.63976 20.475 9.07792 20.6869 9.54737C21.0804 10.3924 21.3226 11.4252 21.3529 12.5832C21.3529 12.6458 21.3529 12.7397 21.3529 12.8022C21.3529 12.8648 21.3529 12.9587 21.3529 13.0213C21.3529 13.0526 21.3529 13.0839 21.3529 13.1152C21.3529 13.2717 21.3529 13.4595 21.3226 13.616C21.2318 15.619 20.7777 17.622 19.9907 19.4059C19.9604 19.4685 19.9302 19.5624 19.8999 19.625C19.1734 21.2211 18.2047 22.6295 17.0545 23.6623C16.2674 24.3821 15.3896 24.9454 14.4512 25.2897C13.3615 25.6966 12.1809 25.8217 10.9399 25.6966C10.4253 25.634 9.91066 25.5714 9.39606 25.4462C9.30525 25.4149 9.24472 25.4149 9.15391 25.3836C7.82201 25.0706 6.6112 24.5699 5.52146 23.8813C5.49119 23.8813 5.49119 23.85 5.46092 23.85C4.00794 23.005 2.79713 21.628 1.94956 20.1257C1.91929 20.0631 1.88902 20.0005 1.82848 19.9066C1.76794 19.7814 1.70739 19.6563 1.64685 19.5311C1.01117 18.1853 0.647934 16.8082 0.647934 15.619C0.617664 18.2792 2.04036 22.0035 4.49226 24.1317C4.64362 24.2882 4.79497 24.4134 4.94632 24.5386C5.0674 24.6325 5.18849 24.7263 5.30957 24.8202C5.33984 24.8515 5.40038 24.8828 5.43065 24.9141C5.52146 24.9767 5.61227 25.0393 5.67281 25.1019C5.76363 25.1645 5.85444 25.2271 5.94525 25.2897C6.12687 25.4149 6.30849 25.5401 6.49011 25.6653C6.58092 25.7279 6.67173 25.7904 6.76254 25.853C6.85335 25.9156 6.94417 25.9782 7.03498 26.0408C7.12579 26.1034 7.2166 26.166 7.30741 26.2286C9.30526 27.4179 11.6361 28.7323 14.1485 29.64C14.2393 29.6713 14.3301 29.7026 14.4209 29.7338C14.5118 29.7651 14.6026 29.7964 14.6934 29.8277C15.5107 30.1094 16.2977 30.2346 17.0545 30.2033H17.0847C19.7788 30.0781 22.0491 27.9812 23.4112 24.9454C24.3496 22.8798 24.8642 20.5013 24.8339 17.8097C24.8642 16.2449 24.6221 14.6175 24.2285 13.1465Z" fill="#00C7C7"/>
</svg>
