<svg width="40" height="40" viewBox="0 0 40 40" fill="none" xmlns="http://www.w3.org/2000/svg">
<rect width="40" height="40" rx="3" fill="white"/>
<g clip-path="url(#clip0)">
<path d="M27.9958 28V27.9994H27.9998V22.1314C27.9998 19.2607 27.3818 17.0494 24.0258 17.0494C22.4125 17.0494 21.3298 17.9347 20.8878 18.774H20.8412V17.3174H17.6592V27.9994H20.9725V22.71C20.9725 21.3174 21.2365 19.9707 22.9612 19.9707C24.6605 19.9707 24.6858 21.56 24.6858 22.7994V28H27.9958Z" fill="#989898"/>
<path d="M12.2642 17.318H15.5815V28H12.2642V17.318Z" fill="#989898"/>
<path d="M13.9213 12C12.8607 12 12 12.8607 12 13.9213C12 14.982 12.8607 15.8607 13.9213 15.8607C14.982 15.8607 15.8427 14.982 15.8427 13.9213C15.842 12.8607 14.9813 12 13.9213 12V12Z" fill="#989898"/>
</g>
<defs>
<clipPath id="clip0">
<rect width="16" height="16" fill="white" transform="translate(12 12)"/>
</clipPath>
</defs>
</svg>
