<?xml version="1.0" encoding="utf-8"?>
<!-- Generator: Adobe Illustrator 22.1.0, SVG Export Plug-In . SVG Version: 6.00 Build 0)  -->
<svg version="1.1" id="Livello_1" xmlns="http://www.w3.org/2000/svg" xmlns:xlink="http://www.w3.org/1999/xlink" x="0px" y="0px"
	 viewBox="0 0 382.6 95.9" style="enable-background:new 0 0 382.6 95.9;" xml:space="preserve">
<style type="text/css">
	.st0{fill:#057A96;}
	.st1{fill:#0E2639;}
	.st2{fill:#00C7C7;}
	.st3{fill:#F6BE00;}
</style>
<g>
	<path class="st0" d="M95.7,47.1c0,0.3,0,0.6,0,0.9s0,0.6,0,0.9C95.5,57.7,93,66,88.6,73.1c-0.2,0.3-0.3,0.5-0.5,0.8
		c-0.2,0.4-0.5,0.8-0.7,1.1c-0.3,0.5-0.6,0.9-1,1.4s-0.8,1-1.2,1.5c-0.1,0.2-0.3,0.3-0.4,0.5c-0.2,0.2-0.3,0.4-0.5,0.6
		c-0.2,0.3-0.5,0.6-0.7,0.8c-0.3,0.3-0.5,0.6-0.8,0.8c-0.3,0.3-0.5,0.5-0.8,0.8c-2.6,2.7-5.5,5.1-8.7,7.1c-0.3,0.2-0.6,0.4-1,0.6
		c-3.6,2.2-7.5,3.8-11.6,5c-0.3,0.1-0.6,0.2-0.9,0.2c-0.6,0.2-1.2,0.3-1.8,0.4c-0.4,0.1-0.8,0.2-1.1,0.2c-2.7,0.5-5.4,0.8-8.2,0.9
		c12.6-0.3,23.6-7.1,29.8-17.2c3.3-5.5,5.3-11.9,5.3-18.7c0-4.2-0.7-8.2-2-12c-2.8-7.8-8.2-14.4-15.2-18.7
		C61.3,26,55.1,24.1,48.5,24c-0.2,0-0.4,0-0.6,0s-0.4,0-0.6,0c-12.7,0.3-23,10.6-23.3,23.3c0.1-6.6,2-12.8,5.2-18.1
		c4.3-7,10.9-12.4,18.7-15.2c3.7-1.3,7.8-2,12-2c6.9,0,13.3,1.9,18.7,5.3C88.6,23.5,95.4,34.5,95.7,47.1z"/>
	<path class="st1" d="M95.7,47.1c-0.3-12.6-7.1-23.6-17.2-29.8C73,14,66.6,12,59.8,12c-4.2,0-8.2,0.7-12,2
		c-7.8,2.8-14.4,8.2-18.7,15.2c-3.2,5.3-5.1,11.5-5.2,18.1c0,0.2,0,0.4,0,0.6s0,0.4,0,0.6c0.2,6.6,3,12.5,7.4,16.7
		c0.3,0.3,0.5,0.5,0.8,0.8c0.3,0.2,0.6,0.5,0.9,0.7c1.5,1.2,3,2.1,4.8,2.9c1.5,0.7,3.2,1.3,4.8,1.6c1.4,0.3,2.9,0.5,4.4,0.6
		c-6.5-0.2-12.6-2.1-17.8-5.2c-7-4.3-12.4-10.9-15.2-18.7c-1.3-3.7-2-7.8-2-12c0-6.9,1.9-13.3,5.3-18.7C23.5,7.1,34.5,0.3,47.1,0
		c0.3,0,0.6,0,0.9,0s0.6,0,0.9,0c12.9,0.2,24.5,5.6,33,14c0.5,0.5,1,1.1,1.6,1.6c0.4,0.4,0.7,0.8,1.1,1.3c0.1,0.1,0.2,0.3,0.4,0.4
		c0.2,0.3,0.5,0.6,0.7,0.9s0.5,0.6,0.7,0.9c0.4,0.6,0.9,1.2,1.3,1.8c0.2,0.3,0.4,0.6,0.6,0.9s0.4,0.6,0.6,1c0.2,0.3,0.4,0.6,0.6,1
		C93.2,30.8,95.6,38.7,95.7,47.1z"/>
	<path class="st2" d="M81.7,48c1.3,3.7,2,7.8,2,12c0,6.9-1.9,13.3-5.3,18.7c-6.2,10.1-17.2,16.9-29.8,17.2c-0.3,0-0.6,0-0.9,0
		s-0.6,0-0.9,0c-2.8-0.1-5.6-0.3-8.2-0.9c-0.4-0.1-0.8-0.2-1.1-0.2c-0.6-0.1-1.1-0.3-1.7-0.4c-0.4-0.1-0.7-0.2-1.1-0.3
		c-1.5-0.4-2.9-0.9-4.4-1.5c-0.5-0.2-1.1-0.4-1.6-0.7c-0.2-0.1-0.3-0.2-0.5-0.2c-0.3-0.2-0.7-0.3-1-0.5s-0.7-0.3-1-0.5
		c-0.3-0.2-0.7-0.3-1-0.5c-0.2-0.1-0.3-0.2-0.5-0.3c-0.3-0.2-0.7-0.4-1-0.6c-0.6-0.4-1.3-0.8-1.9-1.2c-1.6-1-3.1-2.1-4.5-3.3
		c-1.2-1-2.3-2-3.3-3c-8.5-8.5-13.8-20.1-14-33c0.3,12.6,7.1,23.6,17.2,29.8c5.5,3.3,11.9,5.3,18.7,5.3c4.2,0,8.2-0.7,12-2
		c7.8-2.8,14.4-8.2,18.7-15.2c3.2-5.2,5.1-11.3,5.2-17.8c0-0.1,0-0.2,0-0.3c0-0.2,0-0.4,0-0.6s0-0.4,0-0.6c-0.1-3.4-0.9-6.6-2.2-9.5
		c-0.8-1.7-1.8-3.3-2.9-4.8c-0.2-0.3-0.5-0.6-0.7-0.9s-0.5-0.6-0.8-0.8C61,27,55.1,24.2,48.5,24c6.6,0.1,12.8,2,18.1,5.2
		C73.5,33.6,79,40.2,81.7,48z"/>
	<path class="st3" d="M71.8,48.9c-0.2,6.5-2.1,12.6-5.2,17.8c-4.3,7-10.9,12.4-18.7,15.2c-3.7,1.3-7.8,2-12,2
		c-6.9,0-13.3-1.9-18.7-5.3C7.1,72.4,0.3,61.4,0,48.8c0-0.3,0-0.6,0-0.9s0-0.6,0-0.9C0.5,21.3,21.3,0.5,47,0
		C34.4,0.3,23.4,7.1,17.2,17.2c-3.3,5.5-5.3,11.9-5.3,18.7c0,4.2,0.7,8.2,2,12c2.8,7.8,8.2,14.4,15.2,18.7
		c5.2,3.2,11.3,5.1,17.8,5.2c0.1,0,0.2,0,0.3,0c0.2,0,0.4,0,0.6,0s0.4,0,0.6,0c1.6,0,3.1-0.2,4.6-0.6c1.7-0.4,3.3-0.9,4.8-1.6
		c1.7-0.8,3.3-1.8,4.8-2.9c0.3-0.2,0.6-0.5,0.9-0.7s0.6-0.5,0.8-0.8c0.3-0.3,0.5-0.5,0.8-0.8s0.5-0.5,0.8-0.8
		c0.2-0.3,0.5-0.6,0.7-0.9c1.2-1.5,2.1-3,2.9-4.8C70.9,55.3,71.7,52.2,71.8,48.9z"/>
</g>
<g>
	<path class="st1" d="M183.5,69.5C175.8,79,165.7,84,154.6,84c-18.5,0-35.9-15.7-35.9-36c0-18.9,15.7-35.9,35.9-35.9
		c11.7,0,21.1,5.1,26.5,12.2l-9.4,7.6c-4.2-4.6-10.1-8.4-17.1-8.4c-11.9,0-23.9,11-23.9,24.5c0,13.7,10.2,24.6,23.9,24.6
		c6.8,0,13.5-3.2,17.5-7.7V53.5h-17.5v-11h28.9V69.5z"/>
	<path class="st1" d="M208.6,19.2c0,4-3.2,7.4-7.2,7.4s-7.2-3.4-7.2-7.4s3.2-7,7.2-7C205.4,12.2,208.6,15.2,208.6,19.2z M196,82.8
		v-44h10.8v44H196z"/>
	<path class="st1" d="M265,60.7c0,12.7-10.9,23.2-23.6,23.2s-23.6-10.5-23.6-23.2s10.9-23.2,23.6-23.2C254.1,37.5,265,48,265,60.7z
		 M228.4,60.7c0,7,6.1,13,13,13s13-6,13-13s-6.1-13-13-13S228.4,53.7,228.4,60.7z"/>
	<path class="st1" d="M299.1,38.6v9.6h-10.7v34.4h-10.8V48.2h-8.5l19.3-27.5v17.9H299.1z"/>
	<path class="st1" d="M330.4,38.6v9.6h-10.7v34.4h-10.8V48.2h-8.5l19.3-27.5v17.9H330.4z"/>
	<path class="st1" d="M382.6,60.6c0,12.7-10.9,23.2-23.6,23.2c-12.7,0-23.6-10.5-23.6-23.2s10.9-23.2,23.6-23.2
		C371.6,37.4,382.6,47.9,382.6,60.6z M346,60.6c0,7,6.1,13,13,13s13-6,13-13s-6.1-13-13-13C352,47.6,346,53.6,346,60.6z"/>
</g>
</svg>
