<svg width="64" height="64" viewBox="0 0 64 64" fill="none" xmlns="http://www.w3.org/2000/svg">
<g clip-path="url(#clip0)">
<g filter="url(#filter0_d)">
<circle cx="32.0001" cy="32.2928" r="28" transform="rotate(165 32.0001 32.2928)" fill="#EFF9F9"/>
<circle cx="32.0001" cy="32.2928" r="27" transform="rotate(165 32.0001 32.2928)" stroke="white" stroke-width="2"/>
</g>
<g clip-path="url(#clip1)">
<path d="M39.0654 35.1462L35.6982 31.779L38.2422 29.235L40.231 31.2237C40.6441 31.6369 41.1935 31.8645 41.7778 31.8645C42.3621 31.8645 42.9114 31.6369 43.3246 31.2237L46.8601 27.6882C47.713 26.8353 47.713 25.4475 46.8601 24.5946L38.9051 16.6397C38.0523 15.7868 36.6645 15.7868 35.8115 16.6397L32.276 20.1752C31.4231 21.0281 31.4231 22.4159 32.276 23.2688L34.2647 25.2575L31.7207 27.8015L28.3536 24.4343C29.0381 22.1386 28.4215 19.6409 26.7026 17.922C24.9325 16.1519 22.3537 15.5482 19.9728 16.3466C19.6845 16.4433 19.461 16.6738 19.3732 16.965C19.2855 17.2561 19.3444 17.5718 19.5313 17.8117L22.1394 21.1594L20.6591 22.6397L17.3115 20.0314C17.0716 19.8445 16.7559 19.7856 16.4648 19.8734C16.1736 19.9611 15.9431 20.1846 15.8465 20.4729C15.048 22.8539 15.6516 25.4326 17.4218 27.2028C19.1408 28.9218 21.6385 29.5385 23.9342 28.8539L27.3014 32.221L23.8893 35.6331C23.7135 35.4578 23.4755 35.3594 23.2273 35.3594C22.9786 35.3594 22.7402 35.4581 22.5644 35.634L16.5982 41.6002C15.8898 42.3084 15.4998 43.2501 15.4998 44.2517C15.4998 45.2534 15.8898 46.1951 16.5981 46.9034V46.9034C17.3292 47.6345 18.2895 48 19.2498 48C20.2101 48 21.1703 47.6345 21.9014 46.9034L27.8676 40.9372C28.2337 40.5711 28.2337 39.9775 27.8676 39.6114L27.8667 39.6105L31.2788 36.1984L34.6459 39.5656C33.9613 41.8612 34.578 44.3589 36.2969 46.0779C37.5504 47.3315 39.2092 48.0001 40.9163 48C41.6199 48 42.3318 47.8864 43.0268 47.6533C43.3151 47.5566 43.5386 47.3261 43.6263 47.0349C43.7141 46.7437 43.6551 46.4281 43.4683 46.1882L40.8601 42.8406L42.3404 41.3603L45.6881 43.9684C45.9279 44.1552 46.2435 44.2141 46.5347 44.1265C46.8259 44.0387 47.0564 43.8153 47.1531 43.5269C47.9516 41.1459 47.348 38.5672 45.5777 36.7971C43.8588 35.0782 41.3611 34.4617 39.0654 35.1462ZM33.5103 21.722C33.5103 21.6737 33.5222 21.5807 33.6019 21.5011L37.1374 17.9655C37.217 17.8859 37.31 17.8739 37.3584 17.8739C37.4068 17.8739 37.4997 17.8858 37.5794 17.9655L45.5343 25.9204C45.614 26.0001 45.6258 26.0931 45.6258 26.1414C45.6258 26.1897 45.614 26.2827 45.5343 26.3624L41.9988 29.8979C41.9191 29.9776 41.8261 29.9895 41.7778 29.9895C41.7294 29.9895 41.6365 29.9776 41.5568 29.8979L33.6018 21.943C33.5222 21.8634 33.5103 21.7704 33.5103 21.722ZM24.8438 27.1117C24.5774 26.8453 24.1774 26.7644 23.8282 26.906C22.0777 27.6167 20.0834 27.2127 18.7476 25.8769C17.824 24.9534 17.3455 23.7208 17.3776 22.4598L20.1601 24.6278C20.5333 24.9184 21.0646 24.8857 21.3992 24.5511L24.0508 21.8994C24.3854 21.5649 24.4182 21.0336 24.1275 20.6604L21.9596 17.8778C23.22 17.8457 24.4531 18.3244 25.3767 19.2479C26.7125 20.5836 27.1164 22.5779 26.4057 24.3284C26.264 24.6775 26.345 25.0775 26.6115 25.3439L30.3948 29.1274L28.627 30.8951L24.8438 27.1117ZM20.5756 45.5776C19.8445 46.3085 18.655 46.3086 17.924 45.5776C17.5698 45.2234 17.3748 44.7526 17.3748 44.2517C17.3748 43.7509 17.5698 43.2801 17.924 42.9259L23.2273 37.6226L25.8789 40.2742L20.5756 45.5776ZM25.2151 36.9588L35.5906 26.5833L36.9165 27.9092L26.5409 38.2847L25.2151 36.9588ZM45.6219 41.5401L42.8393 39.3722C42.4661 39.0815 41.9347 39.1142 41.6003 39.4489L38.9486 42.1005C38.6141 42.4351 38.5813 42.9664 38.872 43.3396L41.0399 46.1221C39.7795 46.1552 38.5463 45.6756 37.6228 44.7521C36.287 43.4163 35.8831 41.4221 36.5938 39.6716C36.7356 39.3224 36.6545 38.9224 36.3881 38.656L32.6047 34.8726L34.3725 33.1048L38.1559 36.8882C38.4223 37.1547 38.8223 37.2357 39.1715 37.094C40.922 36.3832 42.9163 36.7872 44.2521 38.123C45.1755 39.0466 45.654 40.2791 45.6219 41.5401Z" fill="#057A96"/>
</g>
</g>
<defs>
<filter id="filter0_d" x="-6.29272" y="-6" width="76.5857" height="76.5857" filterUnits="userSpaceOnUse" color-interpolation-filters="sRGB">
<feFlood flood-opacity="0" result="BackgroundImageFix"/>
<feColorMatrix in="SourceAlpha" type="matrix" values="0 0 0 0 0 0 0 0 0 0 0 0 0 0 0 0 0 0 127 0"/>
<feOffset/>
<feGaussianBlur stdDeviation="2"/>
<feColorMatrix type="matrix" values="0 0 0 0 0 0 0 0 0 0 0 0 0 0 0 0 0 0 0.15 0"/>
<feBlend mode="normal" in2="BackgroundImageFix" result="effect1_dropShadow"/>
<feBlend mode="normal" in="SourceGraphic" in2="effect1_dropShadow" result="shape"/>
</filter>
<clipPath id="clip0">
<rect width="64" height="64" fill="white"/>
</clipPath>
<clipPath id="clip1">
<rect width="32" height="32" fill="white" transform="translate(15.5 16)"/>
</clipPath>
</defs>
</svg>
