<svg width="223" height="158" viewBox="0 0 223 158" fill="none" xmlns="http://www.w3.org/2000/svg">
<g clip-path="url(#clip0)">
<path opacity="0.1" d="M193.246 158C200.324 158 206.062 156.468 206.062 154.578C206.062 152.688 200.324 151.156 193.246 151.156C186.168 151.156 180.43 152.688 180.43 154.578C180.43 156.468 186.168 158 193.246 158Z" fill="#057A96"/>
<path opacity="0.1" d="M214.384 139.968C209.507 144.037 202.569 145.721 195.858 146.785L194.729 146.958C187.72 148.009 180.633 148.569 173.522 148.91C169.717 149.095 165.912 149.226 162.107 149.343L159.125 149.431C155.254 149.547 151.375 149.66 147.488 149.772C143.684 149.881 139.879 149.983 136.074 150.078C131.201 150.197 126.328 150.297 121.455 150.376C117.65 150.437 113.846 150.478 110.041 150.501C105.167 150.529 100.294 150.52 95.4222 150.473C91.6147 150.434 87.8098 150.367 84.0076 150.271C79.1321 150.145 74.2592 149.96 69.389 149.717C66.0835 149.555 62.7799 149.36 59.4784 149.131L57.9745 149.025C43.8024 147.997 29.3761 146.154 16.9743 140.329L16.6398 140.17C16.4736 140.091 16.3074 140.013 16.1412 139.93C13.8641 138.835 11.683 137.549 9.6209 136.085C5.95424 133.454 2.92638 130.244 1.32634 126.435C-1.18085 120.46 0.144837 113.745 3.00848 107.904C5.87213 102.062 10.1716 96.7889 13.8903 91.288C14.9797 89.6766 16.013 88.0048 16.9743 86.2906C22.9819 75.5406 25.9617 63.1005 19.6637 52.7412C18.8324 51.4205 17.9348 50.1431 16.9743 48.9142C15.4383 46.8999 13.8763 44.8857 12.821 42.6559C10.3598 37.4672 10.8885 31.6319 11.7857 26.0886C12.9872 18.7185 15.19 10.7803 22.0748 6.17575C29.2179 1.39391 39.3568 1.63562 48.2221 3.35579C62.0056 6.01259 74.7278 11.5739 87.5702 16.5894C100.413 21.6049 113.866 26.1914 127.986 26.6849C131.019 26.7893 134.056 26.6782 137.073 26.3525C141.096 25.9367 145.064 25.0962 148.912 23.8448C154.469 22.0037 159.526 19.2341 163.275 15.3849C171.315 7.15669 186.424 6.53429 197.318 11.5034C207.713 16.245 214.436 26.28 213.939 36.3029C213.374 47.4599 205.068 56.6328 197.456 66.0413C196.533 67.1814 195.622 68.3255 194.735 69.4777C194.239 70.1209 193.753 70.7654 193.277 71.4113C192.442 72.5514 191.635 73.6975 190.874 74.8577C186.985 80.8058 184.235 87.9504 186.913 94.3718C188.415 97.9672 191.28 100.711 194.735 103.106C202.475 108.47 213.158 112.079 217.964 119.588C222.105 126.06 220.572 134.796 214.384 139.968Z" fill="#057A96"/>
<g opacity="0.1">
<path opacity="0.1" d="M111.242 110.653C111.25 110.842 111.264 111.028 111.284 111.209C112.842 110.584 114.371 109.913 115.872 109.195C116.672 109.088 117.417 108.722 117.992 108.151C118.431 107.93 118.867 107.698 119.3 107.466C119.202 107.258 119.091 107.056 118.967 106.862C118.124 105.523 116.843 104.685 115.431 104.731C114.019 104.777 112.798 105.698 112.043 107.086C111.463 108.181 111.187 109.413 111.242 110.653Z" fill="#81B6DF"/>
<path opacity="0.1" d="M111.011 103.609C111.041 104.843 111.397 106.047 112.043 107.098C112.888 108.433 114.169 109.271 115.581 109.225C115.679 109.225 115.781 109.211 115.872 109.203C116.672 109.096 117.417 108.73 117.992 108.159C118.383 107.785 118.712 107.352 118.967 106.874C119.532 105.778 119.808 104.554 119.768 103.319C119.728 102.085 119.374 100.882 118.739 99.8243C117.894 98.4848 116.612 97.6469 115.201 97.6932C113.789 97.7396 112.569 98.6601 111.814 100.048C111.236 101.142 110.958 102.371 111.011 103.609Z" fill="#81B6DF"/>
<path opacity="0.1" d="M115.35 102.181C117.768 102.102 119.643 99.4564 119.539 96.2732C119.435 93.09 117.391 90.5743 114.974 90.6541C112.556 90.7339 110.681 93.3791 110.785 96.5623C110.889 99.7455 112.933 102.261 115.35 102.181Z" fill="#81B6DF"/>
<path opacity="0.1" d="M115.12 95.139C117.538 95.0592 119.413 92.414 119.309 89.2308C119.206 86.0476 117.162 83.5318 114.744 83.6116C112.327 83.6914 110.451 86.3366 110.555 89.5198C110.659 92.703 112.703 95.2188 115.12 95.139Z" fill="#81B6DF"/>
<path opacity="0.1" d="M114.891 88.0943C117.308 88.0145 119.184 85.3693 119.08 82.1861C118.976 79.0029 116.932 76.4871 114.515 76.5669C112.097 76.6467 110.222 79.2919 110.326 82.4751C110.429 85.6584 112.473 88.1742 114.891 88.0943Z" fill="#81B6DF"/>
<path opacity="0.1" d="M129.523 33.5917C130.096 32.8064 130.614 31.9819 131.073 31.1242L119.51 29.6055L131.95 29.2872C133.058 26.6373 133.617 23.7878 133.592 20.9131C133.567 18.0385 132.959 15.1991 131.806 12.5689L115.403 21.8244L130.422 9.94033C128.893 7.49354 126.881 5.3888 124.509 3.75662C122.138 2.12444 119.459 0.999628 116.638 0.451933C113.817 -0.095761 110.914 -0.0546594 108.109 0.572689C105.304 1.20004 102.658 2.40026 100.333 4.09892C98.0085 5.79758 96.0557 7.95847 94.5957 10.4476C93.1358 12.9367 92.1997 15.701 91.8457 18.5689C91.4916 21.4369 91.7271 24.3475 92.5375 27.1202C93.348 29.8929 94.7161 32.4685 96.557 34.6874C95.6645 35.91 94.9052 37.2255 94.2921 38.6112L109.473 45.9189L93.3809 41.0726C92.3719 44.4326 92.2117 47.9925 92.9149 51.4304C93.618 54.8683 95.1623 58.0755 97.408 60.7619C95.0783 63.9532 93.6883 67.7395 93.397 71.6878C93.1058 75.6362 93.925 79.5873 95.761 83.0895C97.597 86.5917 100.376 89.5035 103.779 91.4921C107.183 93.4806 111.074 94.4657 115.009 94.3347C118.943 94.2036 122.761 92.9617 126.026 90.751C129.291 88.5402 131.873 85.4499 133.474 81.8332C135.076 78.2165 135.633 74.2195 135.083 70.2992C134.533 66.3788 132.897 62.6934 130.362 59.6642C133.148 55.8526 134.579 51.2101 134.427 46.4819C134.275 41.7537 132.548 37.2141 129.523 33.5917Z" fill="#057A96"/>
<path opacity="0.1" d="M92.4957 47.8647C92.642 52.5958 94.373 57.1384 97.408 60.7559C95.0776 63.9467 93.6869 67.7327 93.3949 71.681C93.1029 75.6294 93.9214 79.5807 95.7567 83.0832C97.5921 86.5857 100.37 89.4981 103.774 91.4873C107.177 93.4765 111.068 94.4623 115.002 94.332C118.936 94.2016 122.755 92.9604 126.02 90.7503C129.286 88.5401 131.868 85.4502 133.47 81.8338C135.072 78.2174 135.631 74.2205 135.081 70.3C134.531 66.3796 132.896 62.6938 130.362 59.6642C133.055 55.9861 92.4196 45.4979 92.4957 47.8647Z" fill="black"/>
</g>
<g opacity="0.1">
<path opacity="0.1" d="M65.3191 147.758C65.3191 147.89 65.3051 148.023 65.289 148.16C64.181 147.717 63.0922 147.243 62.0229 146.736C61.4531 146.661 60.9231 146.402 60.513 145.997C60.2006 145.837 59.8902 145.675 59.5818 145.51C59.6514 145.362 59.7303 145.22 59.8181 145.083C60.4189 144.128 61.328 143.532 62.3333 143.564C63.3386 143.596 64.2077 144.249 64.7363 145.236C65.1503 146.009 65.3514 146.88 65.3191 147.758Z" fill="#81B6DF"/>
<path opacity="0.1" d="M65.4752 142.744C65.4555 143.622 65.2039 144.479 64.7463 145.228C64.1455 146.178 63.2344 146.777 62.2311 146.744L62.0308 146.728C61.4611 146.653 60.931 146.394 60.5209 145.989C60.2423 145.723 60.0078 145.415 59.826 145.074C59.4244 144.295 59.2279 143.425 59.2552 142.547C59.2825 141.67 59.5328 140.814 59.9822 140.061C60.583 139.106 61.4941 138.51 62.4974 138.542C63.5007 138.574 64.3718 139.227 64.9105 140.214C65.3195 140.992 65.5145 141.865 65.4752 142.744Z" fill="#81B6DF"/>
<path opacity="0.1" d="M65.6372 137.74C65.7084 135.475 64.3717 133.595 62.6516 133.54C60.9316 133.485 59.4795 135.277 59.4084 137.542C59.3372 139.807 60.6739 141.687 62.394 141.742C64.114 141.796 65.5661 140.005 65.6372 137.74Z" fill="#81B6DF"/>
<path opacity="0.1" d="M65.7927 132.727C65.8639 130.462 64.5272 128.582 62.8072 128.527C61.0871 128.472 59.6351 130.264 59.5639 132.529C59.4927 134.794 60.8294 136.674 62.5495 136.729C64.2695 136.784 65.7216 134.992 65.7927 132.727Z" fill="#81B6DF"/>
<path opacity="0.1" d="M65.9504 127.713C66.0216 125.448 64.6849 123.567 62.9649 123.513C61.2448 123.458 59.7928 125.25 59.7216 127.515C59.6505 129.78 60.9871 131.66 62.7072 131.715C64.4272 131.769 65.8793 129.978 65.9504 127.713Z" fill="#81B6DF"/>
<path opacity="0.1" d="M52.2485 92.9335C51.8402 92.3747 51.4702 91.7885 51.1411 91.1791L59.3676 90.0793L50.5143 89.8779C49.7231 87.9927 49.3228 85.9649 49.3379 83.9187C49.3531 81.8724 49.7834 79.8508 50.6024 77.9777L62.2833 84.5502L51.5857 76.1004C52.6683 74.3512 54.0972 72.8447 55.7836 71.6749C57.47 70.5051 59.3778 69.697 61.3881 69.3009C63.3984 68.9047 65.4683 68.929 67.4689 69.3722C69.4695 69.8154 71.3579 70.6681 73.0168 71.8772C74.6756 73.0862 76.0692 74.6258 77.1109 76.4C78.1526 78.1742 78.8202 80.1451 79.0719 82.19C79.3236 84.2348 79.1542 86.31 78.5742 88.2862C77.9941 90.2624 77.0159 92.0973 75.7004 93.6768C76.3375 94.5461 76.8793 95.4821 77.3165 96.4686L66.5187 101.681L77.9673 98.2169C78.6878 100.608 78.8048 103.141 78.3076 105.589C77.8105 108.037 76.7148 110.321 75.1197 112.236C76.781 114.505 77.7743 117.198 77.9857 120.007C78.1972 122.817 77.6185 125.63 76.3156 128.124C75.0128 130.618 73.0384 132.694 70.6182 134.112C68.1981 135.531 65.4299 136.237 62.63 136.148C59.8301 136.059 57.1117 135.179 54.7854 133.609C52.4591 132.04 50.6189 129.843 49.4752 127.271C48.3315 124.699 47.9304 121.855 48.3177 119.065C48.7051 116.274 49.8653 113.649 51.6658 111.491C49.6805 108.78 48.6586 105.477 48.7643 102.112C48.87 98.7466 50.0971 95.5148 52.2485 92.9356V92.9335Z" fill="#057A96"/>
<path opacity="0.1" d="M78.6021 103.057C78.5017 106.424 77.2747 109.658 75.1197 112.236C76.781 114.505 77.7743 117.198 77.9858 120.007C78.1972 122.817 77.6185 125.63 76.3156 128.124C75.0128 130.618 73.0384 132.694 70.6183 134.112C68.1981 135.531 65.4299 136.237 62.63 136.148C59.8302 136.059 57.1117 135.179 54.7854 133.609C52.4591 132.04 50.6189 129.843 49.4752 127.271C48.3315 124.699 47.9304 121.855 48.3177 119.065C48.7051 116.274 49.8653 113.649 51.6658 111.491C49.7453 108.872 78.6582 101.371 78.6021 103.057Z" fill="black"/>
</g>
<g opacity="0.1">
<path opacity="0.1" d="M169.606 121.562C169.606 121.697 169.592 121.828 169.578 121.965C168.469 121.522 167.38 121.047 166.312 120.541C165.741 120.466 165.211 120.206 164.8 119.802C164.489 119.643 164.177 119.479 163.869 119.314C163.939 119.167 164.018 119.025 164.105 118.887C164.706 117.933 165.615 117.336 166.62 117.369C167.625 117.401 168.495 118.053 169.023 119.04C169.437 119.814 169.638 120.684 169.606 121.562Z" fill="#81B6DF"/>
<path opacity="0.1" d="M169.774 116.549C169.754 117.427 169.502 118.284 169.043 119.032C168.442 119.983 167.533 120.581 166.528 120.549L166.328 120.533C165.757 120.458 165.227 120.198 164.816 119.794C164.538 119.527 164.304 119.219 164.121 118.879C163.719 118.1 163.523 117.23 163.55 116.352C163.577 115.474 163.828 114.618 164.277 113.866C164.878 112.913 165.789 112.315 166.792 112.347C167.796 112.379 168.669 113.032 169.205 114.019C169.616 114.796 169.812 115.669 169.774 116.549Z" fill="#81B6DF"/>
<path opacity="0.1" d="M169.931 111.543C170.002 109.278 168.665 107.398 166.945 107.343C165.225 107.288 163.773 109.08 163.702 111.345C163.631 113.61 164.967 115.49 166.687 115.545C168.407 115.6 169.86 113.808 169.931 111.543Z" fill="#81B6DF"/>
<path opacity="0.1" d="M170.088 106.53C170.16 104.265 168.823 102.385 167.103 102.33C165.383 102.276 163.931 104.067 163.86 106.332C163.788 108.597 165.125 110.478 166.845 110.532C168.565 110.587 170.017 108.795 170.088 106.53Z" fill="#81B6DF"/>
<path opacity="0.1" d="M170.246 101.518C170.317 99.2529 168.981 97.3725 167.261 97.3178C165.541 97.2631 164.089 99.0549 164.018 101.32C163.946 103.585 165.283 105.465 167.003 105.52C168.723 105.574 170.175 103.783 170.246 101.518Z" fill="#81B6DF"/>
<path opacity="0.1" d="M156.535 66.7383C156.127 66.1802 155.757 65.5939 155.43 64.9839L163.656 63.8941L154.803 63.6786C154.012 61.7934 153.612 59.7657 153.627 57.7196C153.642 55.6735 154.071 53.6519 154.889 51.7784L166.57 58.3509L155.873 49.9052C156.953 48.1516 158.382 46.6408 160.069 45.4671C161.756 44.2934 163.665 43.482 165.677 43.0834C167.69 42.6848 169.762 42.7077 171.766 43.1505C173.769 43.5934 175.66 44.4467 177.321 45.6573C178.982 46.8679 180.377 48.4098 181.42 50.1868C182.462 51.9638 183.129 53.9378 183.379 55.9855C183.629 58.0333 183.457 60.1109 182.874 62.0888C182.29 64.0668 181.307 65.9025 179.987 67.4815C180.624 68.3509 181.165 69.2869 181.601 70.2733L170.804 75.4862L182.252 72.0216C182.974 74.412 183.091 76.9456 182.594 79.3932C182.097 81.8407 181.001 84.1249 179.405 86.0388C181.066 88.307 182.06 90.9998 182.271 93.8091C182.483 96.6185 181.905 99.4311 180.602 101.925C179.3 104.42 177.325 106.495 174.905 107.914C172.485 109.333 169.717 110.038 166.918 109.949C164.118 109.86 161.4 108.98 159.074 107.411C156.748 105.841 154.908 103.644 153.764 101.072C152.621 98.5004 152.22 95.6566 152.608 92.8663C152.995 90.076 154.156 87.4517 155.957 85.2936C153.971 82.5828 152.95 79.2796 153.055 75.9145C153.161 72.5493 154.388 69.3175 156.539 66.7383H156.535Z" fill="#057A96"/>
<path opacity="0.1" d="M182.891 76.8619C182.791 80.2284 181.563 83.4622 179.406 86.0389C181.068 88.3071 182.061 90.9998 182.273 93.809C182.484 96.6183 181.905 99.4307 180.603 101.925C179.3 104.419 177.326 106.494 174.906 107.913C172.486 109.331 169.718 110.037 166.919 109.948C164.119 109.859 161.401 108.979 159.075 107.41C156.749 105.84 154.909 103.644 153.766 101.072C152.622 98.5001 152.221 95.6565 152.609 92.8663C152.996 90.0761 154.156 87.4518 155.957 85.2936C154.034 82.6771 182.943 75.174 182.891 76.8619Z" fill="black"/>
</g>
<path d="M69.3884 104.179V149.701C66.0829 149.539 62.7793 149.343 59.4778 149.115L57.9739 149.008V104.179C57.9739 103.946 58.0196 103.715 58.1083 103.499C58.1971 103.284 58.3272 103.088 58.4912 102.923C58.6552 102.758 58.8499 102.627 59.0642 102.538C59.2785 102.449 59.5082 102.403 59.7401 102.403H67.6222C67.8541 102.403 68.0838 102.449 68.2981 102.538C68.5124 102.627 68.7071 102.758 68.8711 102.923C69.0351 103.088 69.1652 103.284 69.254 103.499C69.3427 103.715 69.3884 103.946 69.3884 104.179Z" fill="#81B6DF"/>
<path d="M84.0071 150.267V73.764C84.0071 73.2928 84.1932 72.8409 84.5244 72.5078C84.8556 72.1746 85.3049 71.9874 85.7733 71.9874H93.6554C93.8873 71.9874 94.117 72.0334 94.3313 72.1227C94.5456 72.2119 94.7403 72.3428 94.9043 72.5078C95.0683 72.6727 95.1984 72.8686 95.2872 73.0841C95.3759 73.2997 95.4216 73.5307 95.4216 73.764V150.467L84.0071 150.267Z" fill="#81B6DF"/>
<path d="M110.04 150.507V89.6766C110.04 89.2054 110.226 88.7535 110.557 88.4204C110.889 88.0872 111.338 87.9 111.806 87.9H119.688C120.157 87.9 120.606 88.0872 120.937 88.4204C121.269 88.7535 121.455 89.2054 121.455 89.6766V150.376L110.04 150.507Z" fill="#81B6DF"/>
<path d="M147.488 44.5573V149.772C143.683 149.881 139.878 149.983 136.073 150.078V44.5573C136.073 44.0862 136.259 43.6343 136.591 43.3011C136.922 42.9679 137.371 42.7808 137.839 42.7808H145.722C146.19 42.7808 146.639 42.9679 146.97 43.3011C147.302 43.6343 147.488 44.0862 147.488 44.5573Z" fill="#81B6DF"/>
<path d="M173.521 65.707V148.896C169.716 149.081 165.911 149.212 162.106 149.329V65.707C162.106 65.2358 162.293 64.7839 162.624 64.4508C162.955 64.1176 163.404 63.9304 163.873 63.9304H171.755C172.223 63.9304 172.672 64.1176 173.004 64.4508C173.335 64.7839 173.521 65.2358 173.521 65.707Z" fill="#81B6DF"/>
<path d="M63.7812 77.6313L89.8144 48.4246L115.848 63.1287L141.881 18.0094L167.914 39.5619" stroke="#81B6DF" stroke-width="7" stroke-miterlimit="10" stroke-linecap="round"/>
<path d="M63.6811 83.2713C66.7779 83.2713 69.2883 80.7462 69.2883 77.6314C69.2883 74.5165 66.7779 71.9915 63.6811 71.9915C60.5844 71.9915 58.074 74.5165 58.074 77.6314C58.074 80.7462 60.5844 83.2713 63.6811 83.2713Z" fill="#057A96"/>
<path d="M89.7143 54.0645C92.8111 54.0645 95.3215 51.5394 95.3215 48.4246C95.3215 45.3097 92.8111 42.7847 89.7143 42.7847C86.6176 42.7847 84.1072 45.3097 84.1072 48.4246C84.1072 51.5394 86.6176 54.0645 89.7143 54.0645Z" fill="#057A96"/>
<path d="M115.974 69.5702C119.071 69.5702 121.581 67.0451 121.581 63.9303C121.581 60.8155 119.071 58.2904 115.974 58.2904C112.878 58.2904 110.367 60.8155 110.367 63.9303C110.367 67.0451 112.878 69.5702 115.974 69.5702Z" fill="#057A96"/>
<path d="M141.681 22.2244C144.777 22.2244 147.288 19.6993 147.288 16.5845C147.288 13.4697 144.777 10.9446 141.681 10.9446C138.584 10.9446 136.073 13.4697 136.073 16.5845C136.073 19.6993 138.584 22.2244 141.681 22.2244Z" fill="#057A96"/>
<path d="M191.844 71.5885C194.941 71.5885 197.451 69.0635 197.451 65.9486C197.451 62.8338 194.941 60.3087 191.844 60.3087C188.747 60.3087 186.237 62.8338 186.237 65.9486C186.237 69.0635 188.747 71.5885 191.844 71.5885Z" fill="#057A96"/>
<path d="M170.137 69.4071C170.174 69.7599 170.313 70.094 170.537 70.3679C170.827 70.6983 171.262 70.8494 171.653 71.0468C172.663 71.567 173.435 72.4596 173.807 73.5384C174.474 75.4962 174.56 77.5669 175.409 79.4563C176.258 81.3456 177.256 83.1605 177.989 85.0962C178.405 86.1939 178.738 87.336 179.348 88.3351C179.644 88.8264 180.021 89.2631 180.464 89.6262C180.418 90.3352 180.4 91.0362 180.404 91.7452C180.539 91.7425 180.673 91.7744 180.793 91.8378C180.912 91.9012 181.014 91.9941 181.089 92.1078C181.237 92.3374 181.339 92.594 181.389 92.8631C181.663 94.0052 181.325 95.2218 181.571 96.3699C182.248 99.5636 182.04 102.883 180.97 105.966C180.696 106.747 180.352 109.334 180.644 110.109C181.733 109.998 182.699 110.671 183.718 111.116C183.8 111.724 183.751 112.342 183.574 112.929C183.207 113.991 183.209 115.145 183.215 116.267L183.265 124.578C183.265 125.631 183.279 126.699 183.542 127.72C183.84 128.87 184.467 130.042 184.447 131.231C184.393 133.789 185.594 136.226 185.498 138.764C185.48 139.251 185.414 139.735 185.368 140.218C185.25 141.506 185.282 142.803 185.464 144.084C185.829 146.634 186.792 149.141 186.552 151.706C186.535 151.879 186.477 152.108 186.315 152.175C186.515 152.402 186.728 152.628 186.944 152.844C186.9 152.917 186.841 152.98 186.77 153.027C186.533 153.151 186.272 153.22 186.005 153.228C185.692 153.237 185.388 153.336 185.13 153.514C184.942 153.695 184.815 153.93 184.765 154.187C184.694 154.441 184.679 154.707 184.72 154.967C184.762 155.227 184.859 155.475 185.006 155.694C185.184 155.92 185.418 156.096 185.684 156.205C186.61 156.608 187.671 156.316 188.636 156.022L192.417 154.87C192.648 154.822 192.86 154.71 193.032 154.548C193.11 154.454 193.162 154.342 193.182 154.221C194.017 154.423 194.934 154.175 195.785 153.919L199.566 152.765C199.797 152.718 200.01 152.606 200.181 152.443C200.249 152.359 200.298 152.262 200.325 152.158C200.351 152.053 200.355 151.944 200.335 151.838C200.363 151.826 200.391 151.818 200.419 151.804C200.708 151.673 201.02 151.417 200.95 151.109C200.9 150.908 200.7 150.791 200.613 150.606C200.573 150.485 200.565 150.356 200.589 150.231C200.614 150.107 200.67 149.991 200.754 149.895C200.902 149.693 201.102 149.526 201.238 149.315C201.675 148.642 201.378 147.758 201.214 146.97C200.86 145.288 201.188 143.532 200.964 141.828C200.888 141.254 200.75 140.69 200.639 140.12C200.406 138.772 200.252 137.412 200.177 136.047C200.033 134.097 199.494 132.175 199.802 130.242C199.952 129.107 200.016 127.962 199.993 126.817C200.014 126.088 199.983 125.358 199.898 124.634C199.82 124.094 199.682 123.564 199.622 123.023C199.573 122.413 199.563 121.802 199.59 121.192C199.618 119.831 199.493 118.471 199.218 117.139C198.817 115.308 198.064 113.556 197.744 111.721C197.852 111.745 197.96 111.769 198.064 111.797C198.076 110.387 196.849 107.321 196.394 105.984C196.327 105.82 196.287 105.647 196.274 105.47C196.301 105.238 196.344 105.007 196.4 104.779C196.458 104.292 196.2 103.829 196.13 103.341C196.102 102.998 196.127 102.653 196.204 102.318C196.526 100.515 196.927 98.7266 197.327 96.94C197.502 96.2929 197.562 95.62 197.505 94.9519C197.459 94.5979 197.488 94.2379 197.592 93.8963C197.696 93.5547 197.871 93.2395 198.106 92.9719C198.282 92.8086 198.432 92.6191 198.551 92.4099C198.617 92.2304 198.647 92.0393 198.639 91.8479C198.631 91.0194 198.51 90.1959 198.278 89.4006C198.631 88.7581 198.761 87.9685 198.863 87.2232C199.087 85.5776 199.312 83.9239 199.304 82.2621C199.322 81.3756 199.2 80.4919 198.943 79.6436C198.756 79.1197 198.527 78.6118 198.258 78.1248C197.205 76.0844 196.198 73.9372 194.868 72.068C194.468 71.5 194.72 70.7164 194.748 70.0155C194.778 69.1695 194.446 68.3577 194.119 67.5802C193.953 67.1017 193.697 66.6594 193.366 66.277C193.254 66.1531 193.118 66.0535 192.967 65.9842C192.815 65.9149 192.651 65.8775 192.485 65.8741C192.296 65.8973 192.115 65.9609 191.953 66.0606C191.791 66.1604 191.652 66.2939 191.546 66.4522C191.304 66.7841 191.129 67.1608 191.033 67.5608C190.936 67.9609 190.919 68.3761 190.983 68.7827C191.116 69.5966 191.469 70.3581 192.002 70.9843C192.26 71.2994 192.555 71.5815 192.882 71.8243C193.213 72.8824 193.546 73.9399 193.883 74.9967C194.412 76.6786 194.94 78.3686 195.685 79.9598C195.903 80.4211 196.144 80.8904 196.17 81.4C196.198 81.9499 195.969 82.4736 195.787 82.9913C195.403 84.0702 195.186 85.2019 195.142 86.347C195.084 86.3731 195.028 86.4041 194.974 86.4397C194.343 86.8546 194.145 87.759 193.488 88.1296C193.106 88.3452 192.641 88.3311 192.213 88.4298C192.175 88.4298 192.137 88.4499 192.097 88.462C192.081 88.3814 192.065 88.3029 192.055 88.2203C192.048 88.1688 192.048 88.1167 192.055 88.0652C193.076 87.5005 193.933 86.6787 194.544 85.6803C194.672 85.4954 194.772 85.2916 194.838 85.076C194.892 84.8178 194.902 84.5521 194.868 84.2905C194.835 83.4171 194.71 82.5496 194.498 81.7022C194.284 80.8506 193.816 80.0852 193.158 79.5086C192.829 79.2427 192.451 79.0433 192.125 78.7754C191.488 78.2578 191.051 77.4924 190.322 77.1076C189.858 76.8804 189.329 76.827 188.83 76.9569C188.33 77.0869 187.893 77.3917 187.597 77.8167C187.5 78.0132 187.364 78.1874 187.196 78.3283C187.069 78.389 186.944 78.4562 186.824 78.5297C186.604 78.707 186.592 79.0474 186.664 79.3233C186.8 79.8903 186.877 80.4703 186.892 81.0536C186.246 81.8165 185.89 82.7854 185.887 83.7877C185.885 84.79 186.237 85.7605 186.88 86.5263C186.88 86.9009 186.88 87.2756 186.866 87.6502C186.866 87.7207 186.866 87.7933 186.852 87.8638C186.621 87.7828 186.414 87.6442 186.251 87.4609C186.027 87.1789 185.987 86.764 185.712 86.5323C185.515 86.4015 185.29 86.3187 185.056 86.2906C184.472 86.1574 183.925 85.8967 183.454 85.5272C183.083 85.2392 182.699 84.8706 182.266 84.786C181.52 83.3778 180.648 82.0402 179.663 80.7897C179.413 80.4937 179.185 80.1792 178.982 79.849C178.551 79.0937 178.423 78.2054 178.151 77.3775C177.39 75.0571 175.491 73.196 175.029 70.795C174.861 69.9248 174.312 69.1675 173.935 68.3658C173.681 67.8239 173.401 67.2519 172.892 66.9417C172.237 66.5389 171.332 66.7242 170.787 67.266C170.524 67.5493 170.328 67.8896 170.215 68.2607C170.102 68.6318 170.076 69.024 170.137 69.4071ZM193.913 150.922C193.676 151.046 193.415 151.115 193.148 151.123C193.013 151.137 192.88 151.159 192.747 151.188C192.697 150.765 192.669 150.336 192.637 149.919C192.531 148.551 192.319 147.194 192.109 145.838C191.888 144.428 191.784 142.885 191.308 141.532C190.541 139.328 189.764 137.058 189.862 134.723C189.884 134.194 189.95 133.668 189.978 133.14C190.042 131.833 189.86 130.497 190.178 129.226C190.32 128.648 190.563 128.096 190.655 127.508C190.713 126.977 190.72 126.441 190.675 125.909C190.587 124.061 190.74 122.209 191.129 120.4C191.502 120.889 191.624 121.522 191.73 122.128L192.481 126.225C192.928 128.656 193.322 131.235 194.506 133.398C194.339 134.177 194.175 135.009 194.45 135.755C194.568 136.077 194.762 136.359 194.882 136.685C195.082 137.227 195.054 137.823 195.114 138.397C195.245 139.606 195.741 140.794 195.377 141.961C195.002 143.163 194.758 144.403 194.65 145.659C194.63 146.008 194.59 146.356 194.53 146.7C194.466 147.01 194.361 147.304 194.303 147.623C194.223 148.069 194.243 148.528 194.361 148.966C194.451 149.209 194.507 149.463 194.526 149.721C194.526 149.979 194.211 150.165 193.959 150.205C194.033 150.302 194.113 150.394 194.195 150.485C194.147 150.656 194.049 150.808 193.913 150.922Z" fill="url(#paint0_linear)"/>
<path d="M186.005 153.246C185.692 153.255 185.388 153.354 185.13 153.532C184.941 153.711 184.814 153.945 184.765 154.201C184.694 154.453 184.679 154.717 184.72 154.975C184.762 155.234 184.859 155.48 185.005 155.696C185.184 155.922 185.418 156.097 185.684 156.205C186.609 156.608 187.671 156.314 188.636 156.022L192.417 154.878C192.647 154.831 192.86 154.72 193.032 154.558C193.136 154.417 193.193 154.246 193.196 154.071C193.199 153.895 193.147 153.723 193.048 153.579C192.845 153.295 192.567 153.072 192.247 152.936C191.071 152.36 189.745 152.229 188.454 152.205C187.973 152.205 187.499 152.088 187.172 152.461C187 152.662 187.032 152.878 186.772 153.049C186.534 153.171 186.272 153.239 186.005 153.246Z" fill="#81B6DF"/>
<path d="M193.148 151.156C192.835 151.165 192.531 151.264 192.273 151.442C192.085 151.621 191.958 151.855 191.909 152.11C191.838 152.362 191.822 152.627 191.864 152.885C191.905 153.144 192.003 153.39 192.149 153.607C192.328 153.832 192.562 154.006 192.828 154.115C193.755 154.517 194.814 154.225 195.779 153.933L199.56 152.787C199.791 152.74 200.004 152.629 200.175 152.467C200.279 152.326 200.336 152.156 200.339 151.981C200.342 151.806 200.29 151.634 200.191 151.49C199.988 151.206 199.711 150.984 199.39 150.847C198.213 150.271 196.887 150.138 195.595 150.114C195.115 150.114 194.642 149.999 194.314 150.372C194.141 150.573 194.173 150.787 193.913 150.958C193.676 151.082 193.415 151.15 193.148 151.156Z" fill="#81B6DF"/>
<path d="M189.862 109.884C192.09 109.658 194.331 109.595 196.568 109.694C196.716 109.693 196.863 109.716 197.003 109.763C197.495 109.964 197.572 110.613 197.618 111.142C197.818 113.294 198.751 115.298 199.22 117.405C199.495 118.729 199.62 120.081 199.592 121.433C199.565 122.038 199.576 122.643 199.624 123.246C199.684 123.784 199.824 124.312 199.901 124.847C199.985 125.567 200.016 126.292 199.995 127.017C200.018 128.153 199.954 129.289 199.804 130.415C199.496 132.334 200.035 134.242 200.179 136.184C200.251 137.542 200.403 138.894 200.633 140.234C200.744 140.8 200.882 141.36 200.958 141.93C201.182 143.624 200.854 145.369 201.208 147.04C201.372 147.822 201.669 148.7 201.232 149.369C201.096 149.57 200.896 149.742 200.748 149.945C200.664 150.04 200.608 150.155 200.583 150.28C200.558 150.404 200.567 150.532 200.607 150.652C200.694 150.835 200.894 150.956 200.944 151.152C201.022 151.46 200.702 151.711 200.413 151.842C198.24 152.829 195.439 152.134 193.973 150.243C194.225 150.203 194.534 150.02 194.54 149.762C194.52 149.505 194.465 149.253 194.375 149.012C194.258 148.578 194.238 148.122 194.317 147.679C194.375 147.369 194.48 147.075 194.544 146.762C194.604 146.42 194.644 146.074 194.664 145.727C194.772 144.479 195.016 143.247 195.391 142.053C195.755 140.895 195.259 139.723 195.128 138.514C195.068 137.942 195.094 137.352 194.896 136.812C194.776 136.494 194.582 136.208 194.464 135.89C194.189 135.146 194.353 134.32 194.52 133.547C193.336 131.398 192.942 128.836 192.495 126.421L191.744 122.352C191.632 121.747 191.51 121.121 191.143 120.634C190.754 122.43 190.601 124.27 190.689 126.106C190.734 126.635 190.728 127.168 190.669 127.696C190.577 128.28 190.334 128.83 190.192 129.402C189.882 130.665 190.064 131.99 189.992 133.289C189.964 133.815 189.898 134.337 189.876 134.862C189.778 137.183 190.555 139.439 191.322 141.628C191.792 142.972 191.896 144.498 192.123 145.904C192.323 147.252 192.545 148.599 192.651 149.959C192.749 151.208 192.793 152.559 193.566 153.54C192.86 154.002 192.131 154.471 191.304 154.63C190.34 154.782 189.354 154.589 188.516 154.086C187.683 153.585 186.939 152.949 186.313 152.203C186.475 152.147 186.534 151.909 186.55 151.738C186.79 149.188 185.827 146.702 185.462 144.164C185.28 142.893 185.248 141.604 185.366 140.325C185.412 139.844 185.478 139.362 185.496 138.879C185.592 136.359 184.385 133.932 184.429 131.41C184.449 130.227 183.828 129.063 183.524 127.921C183.261 126.914 183.253 125.846 183.247 124.799L183.197 116.541C183.197 115.425 183.197 114.281 183.556 113.227C183.996 111.958 183.492 110.502 183.416 109.16C185.496 109.824 187.687 110.069 189.862 109.884Z" fill="#057A96"/>
<path d="M182.723 86.1557C181.881 84.4249 180.853 82.7923 179.657 81.2872C179.407 80.9933 179.179 80.6809 178.976 80.3526C178.545 79.6013 178.417 78.719 178.145 77.8972C177.384 75.5929 175.485 73.7418 175.023 71.359C174.855 70.4928 174.306 69.7476 173.929 68.9419C173.675 68.4041 173.395 67.836 172.886 67.5319C172.231 67.129 171.326 67.3144 170.781 67.8542C170.519 68.1351 170.325 68.4728 170.213 68.8412C170.101 69.2096 170.075 69.599 170.137 69.9792C170.174 70.3301 170.313 70.6621 170.537 70.934C170.828 71.2623 171.262 71.4113 171.653 71.6087C172.662 72.1232 173.434 73.0102 173.807 74.0843C174.474 76.028 174.56 78.0866 175.409 79.9639C176.258 81.8411 177.256 83.6419 177.989 85.5615C178.405 86.6512 178.738 87.7771 179.348 88.7843C179.959 89.7914 180.912 90.6354 182.064 90.7864C182.056 90.0563 182.166 89.3298 182.39 88.6352C182.641 87.8416 183.085 86.907 182.723 86.1557Z" fill="#BE8A91"/>
<path d="M195.12 87.6623C195.069 86.238 195.29 84.8171 195.771 83.4767C195.956 82.963 196.172 82.4413 196.154 81.8955C196.128 81.3879 195.887 80.9226 195.669 80.4633C194.916 78.8822 194.388 77.2063 193.867 75.5345L192.866 72.3822C192.539 72.1414 192.244 71.8606 191.986 71.5462C191.453 70.9255 191.1 70.1685 190.967 69.3588C190.903 68.9551 190.92 68.5426 191.017 68.1455C191.113 67.7485 191.288 67.3748 191.53 67.0464C191.637 66.8886 191.776 66.7556 191.938 66.6563C192.1 66.5569 192.281 66.4935 192.469 66.4703C192.635 66.474 192.799 66.5116 192.951 66.5809C193.102 66.6501 193.238 66.7496 193.35 66.8732C193.681 67.2522 193.936 67.6911 194.103 68.1663C194.43 68.9398 194.762 69.7455 194.732 70.5834C194.704 71.2804 194.446 72.0579 194.852 72.6239C196.182 74.481 197.189 76.6141 198.242 78.6425C198.511 79.1258 198.74 79.6304 198.927 80.1511C199.185 80.9951 199.306 81.875 199.288 82.7576C199.288 84.4073 199.071 86.0509 198.847 87.6865C198.705 88.7117 198.519 89.8276 197.748 90.5064C196.947 89.4751 196.142 88.468 195.12 87.6623Z" fill="#BE8A91"/>
<path d="M190.026 88.4479C192.321 88.4479 194.181 86.5766 194.181 84.2683C194.181 81.96 192.321 80.0887 190.026 80.0887C187.731 80.0887 185.871 81.96 185.871 84.2683C185.871 86.5766 187.731 88.4479 190.026 88.4479Z" fill="#BE8A91"/>
<path d="M192.039 88.6694C192.139 89.4248 192.541 90.1016 192.934 90.7542C193.17 91.1571 193.472 91.5861 193.935 91.6304C192.731 92.2659 191.466 92.7775 190.16 93.1572C189.716 93.3073 189.251 93.3828 188.782 93.3808C188.386 93.351 187.997 93.2508 187.635 93.0847C186.843 92.7378 186.14 92.2145 185.578 91.5544C185.016 90.8942 184.611 90.1144 184.393 89.2737C184.91 89.2876 185.428 89.2478 185.937 89.1549C186.228 89.1324 186.499 88.9983 186.694 88.7802C186.81 88.576 186.864 88.3422 186.85 88.1075C186.87 87.4105 186.872 86.7116 186.85 86.0146C187.871 85.9492 188.895 86.0763 189.87 86.3893C190.27 86.5202 190.671 86.6773 191.071 86.7801C191.324 86.8445 192.019 86.7801 192.205 86.9271C192.511 87.1346 191.968 88.1558 192.039 88.6694Z" fill="#BE8A91"/>
<path d="M190.212 91.2094C190.258 90.6587 190.474 90.1365 190.832 89.7167C191.189 89.2969 191.669 89.001 192.203 88.8709C192.631 88.7742 193.096 88.7863 193.478 88.5728C194.135 88.2042 194.333 87.3058 194.964 86.8929C195.595 86.48 196.49 86.7096 197.039 87.2313C197.587 87.753 197.866 88.4962 198.09 89.2234C198.425 90.2066 198.607 91.2359 198.629 92.275C198.637 92.465 198.607 92.6548 198.541 92.8329C198.422 93.0408 198.272 93.229 198.096 93.3909C197.861 93.6561 197.686 93.9692 197.582 94.3089C197.478 94.6485 197.449 95.0066 197.495 95.3588C197.552 96.0222 197.492 96.6905 197.317 97.3328C196.917 99.1093 196.516 100.884 196.194 102.677C196.118 103.007 196.093 103.346 196.12 103.684C196.182 104.169 196.448 104.628 196.39 105.114C196.333 105.34 196.291 105.569 196.264 105.801C196.277 105.976 196.317 106.148 196.384 106.31C196.839 107.638 198.066 110.679 198.054 112.085C195.921 111.535 192.777 111.412 190.575 111.402C189.969 111.396 189.363 111.423 188.76 111.483C187.312 111.64 185.831 112.065 184.427 111.672C183.123 111.308 181.97 110.262 180.622 110.393C180.33 109.624 180.674 107.056 180.948 106.278C182.018 103.217 182.226 99.9174 181.549 96.7446C181.303 95.6045 181.641 94.394 181.367 93.262C181.317 92.9941 181.215 92.7388 181.066 92.5106C180.992 92.3973 180.89 92.3048 180.77 92.2418C180.65 92.1787 180.517 92.1472 180.382 92.1501C180.357 90.3292 180.524 88.5108 180.882 86.7257C181.014 86.0912 181.283 85.3419 181.93 85.2331C182.502 85.1344 182.983 85.6219 183.443 85.9784C183.916 86.3461 184.463 86.6047 185.046 86.7358C185.28 86.7639 185.505 86.8467 185.702 86.9775C185.977 87.2071 186.017 87.62 186.241 87.9C186.642 88.4016 187.537 88.3593 187.821 88.9374C187.883 89.1095 187.933 89.2859 187.971 89.4651C188.106 89.8086 188.335 90.1063 188.632 90.3232C189.078 90.745 189.621 91.0494 190.212 91.2094Z" fill="#F6BE00"/>
<path d="M186.65 79.8249C186.578 79.5489 186.59 79.2206 186.81 79.0353C186.92 78.9487 187.064 78.9164 187.183 78.8338C187.349 78.6931 187.485 78.5197 187.583 78.3242C187.882 77.9036 188.319 77.603 188.817 77.4758C189.315 77.3486 189.842 77.403 190.304 77.6293C191.027 78.01 191.464 78.7714 192.107 79.285C192.433 79.5509 192.812 79.7483 193.14 80.0142C193.798 80.5857 194.265 81.3464 194.48 82.1936C194.693 83.0349 194.817 83.8964 194.85 84.7638C194.884 85.0241 194.874 85.2884 194.82 85.5453C194.754 85.7608 194.654 85.9647 194.526 86.1496C193.865 87.1567 192.994 88.0712 191.902 88.5909C190.811 89.1106 189.483 89.1952 188.406 88.6513C188.298 88.6073 188.204 88.5324 188.138 88.4358C188.076 88.2887 188.062 88.1263 188.096 87.9705C188.154 87.3549 188.033 86.7355 187.747 86.1879C187.547 85.785 187.247 85.4386 187.086 85.0216C186.937 84.5549 186.874 84.0649 186.898 83.5754C186.88 82.3084 186.966 81.0455 186.65 79.8249Z" fill="#2D293D"/>
</g>
<defs>
<linearGradient id="paint0_linear" x1="201.46" y1="111.138" x2="170.111" y2="111.138" gradientUnits="userSpaceOnUse">
<stop stop-color="#808080" stop-opacity="0.25"/>
<stop offset="0.54" stop-color="#808080" stop-opacity="0.12"/>
<stop offset="1" stop-color="#808080" stop-opacity="0.1"/>
</linearGradient>
<clipPath id="clip0">
<rect width="223" height="158" fill="white"/>
</clipPath>
</defs>
</svg>
