<svg width="40" height="40" viewBox="0 0 40 40" fill="none" xmlns="http://www.w3.org/2000/svg">
<rect width="40" height="40" rx="3" fill="white"/>
<g clip-path="url(#clip0)">
<path d="M17.8955 20.4341C16.9675 20.4341 16.2148 21.1867 16.2148 22.1147V26.3187C16.2148 27.2467 16.9675 27.9994 17.8955 27.9994C18.8235 27.9994 19.5762 27.2467 19.5762 26.3187V22.1147C19.5755 21.1867 18.8228 20.4341 17.8955 20.4341Z" fill="#989898"/>
<path d="M12.0127 22.1147C12.0127 23.0433 12.766 23.7967 13.6947 23.7967C14.6234 23.7967 15.3767 23.0433 15.3767 22.1147V20.4327H13.696C13.6954 20.4327 13.6954 20.4327 13.6947 20.4327C12.766 20.4327 12.0127 21.186 12.0127 22.1147Z" fill="#989898"/>
<path d="M17.8974 11.9994C17.8967 11.9994 17.896 11.9994 17.8954 11.9994C16.9667 11.9994 16.2134 12.7527 16.2134 13.6814C16.2134 14.61 16.9667 15.3634 17.8954 15.3634H19.576C19.576 14.4094 19.576 14.6414 19.576 13.678C19.5754 12.7507 18.824 11.9994 17.8974 11.9994Z" fill="#989898"/>
<path d="M13.6835 19.58H17.8955C18.8241 19.58 19.5775 18.8267 19.5775 17.898C19.5775 16.9693 18.8241 16.216 17.8955 16.216H13.6835C12.7548 16.216 12.0015 16.9693 12.0015 17.898C12.0015 18.8267 12.7548 19.58 13.6835 19.58Z" fill="#989898"/>
<path d="M26.3046 16.2154C25.3773 16.2154 24.626 16.9667 24.626 17.894V17.8974V19.5794H26.3066C27.2353 19.5794 27.9886 18.826 27.9886 17.8974C27.9886 16.9687 27.2353 16.2154 26.3066 16.2154C26.306 16.2154 26.3053 16.2154 26.3046 16.2154Z" fill="#989898"/>
<path d="M20.4272 13.6813V17.898C20.4272 18.826 21.1799 19.5786 22.1079 19.5786C23.0359 19.5786 23.7886 18.826 23.7886 17.898V13.6813C23.7886 12.7533 23.0359 12.0006 22.1079 12.0006C21.1799 12.0006 20.4272 12.7533 20.4272 13.6813Z" fill="#989898"/>
<path d="M23.7881 26.3173C23.7881 25.3894 23.0354 24.6367 22.1074 24.6367H20.4268V26.3187C20.4274 27.246 21.1794 27.998 22.1074 27.998C23.0354 27.998 23.7881 27.2453 23.7881 26.3173Z" fill="#989898"/>
<path d="M26.3193 20.4327H22.1073C21.1786 20.4327 20.4253 21.186 20.4253 22.1147C20.4253 23.0433 21.1786 23.7967 22.1073 23.7967H26.3193C27.248 23.7967 28.0013 23.0433 28.0013 22.1147C28.0013 21.186 27.248 20.4327 26.3193 20.4327Z" fill="#989898"/>
</g>
<defs>
<clipPath id="clip0">
<rect width="16" height="16" fill="white" transform="translate(12 12)"/>
</clipPath>
</defs>
</svg>
