<svg width="40" height="40" viewBox="0 0 40 40" fill="none" xmlns="http://www.w3.org/2000/svg">
<rect width="40" height="40" rx="3" fill="white"/>
<path d="M13.2761 24.4304C14.5723 25.2529 16.0808 25.6875 17.6383 25.6875C19.9191 25.6875 22.0092 24.8113 23.5241 23.2206C24.9737 21.6981 25.7711 19.6524 25.7314 17.5763C26.2809 17.1061 26.9273 16.2084 26.9273 15.3334C26.9273 14.9979 26.5633 14.785 26.2681 14.9559C25.7519 15.2593 25.2811 15.3386 24.7969 15.2027C23.8082 14.239 22.3364 14.036 21.0963 14.7045C20.0124 15.2879 19.4099 16.3554 19.4641 17.522C17.633 17.2986 15.9414 16.3804 14.7619 14.9536C14.5682 14.7209 14.2007 14.7483 14.0467 15.0119C13.4785 15.9849 13.4844 17.1125 13.9784 18.0231C13.7434 18.0645 13.5981 18.2623 13.5981 18.4764C13.5981 19.3916 14.0099 20.2328 14.6732 20.8068C14.5495 20.9258 14.5087 21.1025 14.5612 21.26C14.8529 22.1362 15.5132 22.821 16.3386 23.164C15.4409 23.5928 14.448 23.7357 13.5643 23.6272C13.1069 23.5654 12.8812 24.1802 13.2761 24.4304ZM17.7579 23.3139C18.0851 23.0625 17.9113 22.5387 17.5006 22.5299C16.7773 22.5148 18.6599 22.4774 18.2498 21.9168C18.4476 21.904 19.2693 21.7507 19.4641 21.6982C19.908 21.578 16.7289 20.7414 16.2779 20.651C15.4595 20.4865 18.9282 22.2565 18.6873 21.4889C18.9072 21.5431 18.6851 21.2559 18.9085 21.26C19.3512 21.2624 19.4859 21.0442 19.1248 20.8068C18.3111 20.2707 15.9069 25.0593 15.2816 24.4258C16.7026 25.8654 18.3581 24.8369 20.3974 24.9349C20.6897 24.953 24.8611 20.9293 24.7969 20.651C25.0361 19.349 24.5294 18.8643 25.2498 18.4764C25.9626 18.0914 24.1588 17.7046 25.0361 18.6251C25.2969 18.8999 25.089 17.6926 25.2498 17.3896C25.0491 17.7676 25.3249 16.808 25.0361 17.0099C24.913 17.0962 24.8424 17.2397 24.85 17.3896C24.9439 19.3059 24.2299 21.211 22.8912 22.6163C21.5425 24.032 19.6776 24.8119 17.6389 24.8119C16.828 24.8119 16.0329 24.6801 15.2816 24.4258C15.6248 24.9126 17.0334 23.8716 17.7579 23.3139Z" fill="#989898"/>
</svg>
